<svg id="Layer_1" data-name="Layer 1" xmlns="http://www.w3.org/2000/svg" viewBox="0 0 273 24.9"><defs><style>.cls-1{fill:#a0875c;}</style></defs><title>deco 1</title><path class="cls-1" d="M141.42,6.35A8.63,8.63,0,0,0,136,5.92,8.79,8.79,0,0,0,133.42,7a7.49,7.49,0,0,0-2.08,1.85A7.11,7.11,0,0,0,130,14.13a6.38,6.38,0,0,0,1,2.58,5,5,0,0,0,2.14,1.83,6.23,6.23,0,0,0,5.27,0,4.69,4.69,0,0,0,1.9-1.79,5.44,5.44,0,0,0,.65-2.42l-.2,0a5.84,5.84,0,0,1-.93,2.13A4,4,0,0,1,138,17.7a5.13,5.13,0,0,1-4.25-.38,4.22,4.22,0,0,1-2-3.4,5.35,5.35,0,0,1,1.2-3.85,6.56,6.56,0,0,1,3.54-2.17,6.65,6.65,0,0,1,4.18.25,6.34,6.34,0,0,1,3.18,2.71A9.39,9.39,0,0,1,145,15.11a8.5,8.5,0,0,1-3.58,7.82,10.26,10.26,0,0,1-4.25,1.73,11.92,11.92,0,0,1-4.68-.2,16,16,0,0,1-4.41-1.79,11.74,11.74,0,0,1-3.58-3.07,15,15,0,0,1-2.9-9h-.1v-1H33.73A9.76,9.76,0,0,0,24,1a10,10,0,0,0-1.91.19v2A7.52,7.52,0,0,1,24,3a7.76,7.76,0,0,1,7.72,6.69H27.63a3.37,3.37,0,0,0-6.42,0h-7.1V6.86L1,10.69l13.11,3.67V11.58h7.1a3.37,3.37,0,0,0,6.42,0h4.08A7.75,7.75,0,0,1,24,18.26,8,8,0,0,1,22.08,18v2a10,10,0,0,0,1.91.18,9.75,9.75,0,0,0,9.74-8.65h87.71A15.21,15.21,0,0,0,124.05,20a12.57,12.57,0,0,0,3.65,3.39,16.84,16.84,0,0,0,4.59,2.07,12.82,12.82,0,0,0,5.09.37A11.62,11.62,0,0,0,142.2,24a8.81,8.81,0,0,0,1-.78,7.42,7.42,0,0,0,1-.9,9.08,9.08,0,0,0,1.44-2.2,11.47,11.47,0,0,0,1-5.05,11.18,11.18,0,0,0-1.25-5A8.25,8.25,0,0,0,141.42,6.35Z" transform="translate(-1 -0.98)"/><path class="cls-1" d="M274,10.53,260.89,6.86V9.64h-7.1a3.37,3.37,0,0,0-6.42,0h-4.08A7.76,7.76,0,0,1,251,3a7.52,7.52,0,0,1,1.91.25v-2A10,10,0,0,0,251,1a9.76,9.76,0,0,0-9.74,8.66h-92.1v1.94h92.1A9.75,9.75,0,0,0,251,20.23a10,10,0,0,0,1.91-.18V18a8,8,0,0,1-1.91.24,7.75,7.75,0,0,1-7.72-6.68h4.08a3.37,3.37,0,0,0,6.42,0h7.1v2.78Z" transform="translate(-1 -0.98)"/></svg>