<svg id="Layer_1" data-name="Layer 1" xmlns="http://www.w3.org/2000/svg" viewBox="0 0 348 348"><defs><style>.cls-1{fill:#fff;}.cls-2{isolation:isolate;}.cls-3{fill:#231f20;}</style></defs><title>icon instargam</title><circle class="cls-1" cx="174" cy="174" r="174"/><g class="cls-2"><path class="cls-3" d="M259.58,175q0,25.22-.56,34.91-1.09,22.91-13.65,35.46T209.91,259q-9.69.56-34.91.56T140.09,259q-22.91-1.09-35.46-13.65T91,209.91q-.56-9.69-.56-34.91T91,140.09q1.09-22.91,13.65-35.46T140.09,91q9.69-.54,34.91-.55t34.91.55q22.91,1.11,35.46,13.66T259,140.09Q259.58,149.78,259.58,175Zm-76.16-69.43-8.42.05-8.42-.05q-7.67-.06-11.62,0t-10.63.33A86.76,86.76,0,0,0,133,107a44,44,0,0,0-7.88,2A28.75,28.75,0,0,0,109,125.11a44,44,0,0,0-2,7.88,86.76,86.76,0,0,0-1.1,11.34q-.29,6.66-.33,10.63t0,11.62q0,7.65.05,8.42t-.05,8.43q-.06,7.65,0,11.61t.33,10.63A86.76,86.76,0,0,0,107,217a44,44,0,0,0,2,7.88A28.81,28.81,0,0,0,125.11,241a44.92,44.92,0,0,0,7.88,2,86.76,86.76,0,0,0,11.34,1.1q6.66.28,10.63.33t11.62,0l8.42-.05,8.42.05q7.67.06,11.62,0t10.63-.33A86.76,86.76,0,0,0,217,243a44.92,44.92,0,0,0,7.88-2A28.81,28.81,0,0,0,241,224.89a44,44,0,0,0,2-7.88,86.76,86.76,0,0,0,1.1-11.34q.28-6.66.33-10.63t0-11.61q0-7.67-.05-8.43t.05-8.42q.06-7.67,0-11.62t-.33-10.63A86.76,86.76,0,0,0,243,133a44,44,0,0,0-2-7.88A28.75,28.75,0,0,0,224.89,109a44,44,0,0,0-7.88-2,86.76,86.76,0,0,0-11.34-1.1q-6.66-.29-10.63-.33T183.42,105.57Zm22.3,38.71a43.58,43.58,0,0,1,0,61.44,43.58,43.58,0,0,1-61.44,0,43.58,43.58,0,0,1,0-61.44,43.58,43.58,0,0,1,61.44,0Zm-10.79,50.65a28.19,28.19,0,1,0-39.86-39.86,28.19,28.19,0,1,0,39.86,39.86Zm32.38-72.24a10.12,10.12,0,1,1-7.16-3A9.76,9.76,0,0,1,227.31,122.69Z" transform="translate(-1 -1)"/></g></svg>