<svg id="Layer_1" data-name="Layer 1" xmlns="http://www.w3.org/2000/svg" viewBox="0 0 348 348"><defs><style>.cls-1{fill:#fff;}.cls-2{fill:#231f20;}</style></defs><title>icon kakao talk</title><circle class="cls-1" cx="174" cy="174" r="174"/><path class="cls-2" d="M175,76.61c-59.28,0-107.34,37.64-107.34,84.07,0,30,20.09,56.36,50.32,71.23-15,51.42-23.83,54.77,38,11.51A136.48,136.48,0,0,0,175,244.75c59.28,0,107.34-37.64,107.34-84.08S234.28,76.61,175,76.61Z" transform="translate(-1 -1)"/><path class="cls-1" d="M160.55,141.64a8.68,8.68,0,0,0-16.51,0c-8.8,27.3-20.59,44.14-13.34,47.46,9.64,4.37,9.84-5.45,12.16-9.84h18.87c2.3,4.36,2.51,14.2,12.15,9.84C181.16,185.77,169.52,169.46,160.55,141.64Zm-14.44,26.72,6.19-17.45,6.18,17.45Z" transform="translate(-1 -1)"/><path class="cls-1" d="M115.65,190c-10.71,0-4.38-14.82-6.19-42.41-3.83-.67-15.74,2.65-15.74-6a6.05,6.05,0,0,1,6.07-6c22.53,1.61,37.78-4.19,37.78,6,0,8.83-11.4,5.28-15.74,6C120,175.12,126.36,190,115.65,190Z" transform="translate(-1 -1)"/><path class="cls-1" d="M185.32,189.13c-10.37,0-4.06-14-5.93-47.42,0-8.14,12.64-8.13,12.64,0v36.14c6,.79,19.1-2.94,19.1,5.63C211.13,192.49,197,188,185.32,189.13Z" transform="translate(-1 -1)"/><path class="cls-1" d="M242.58,187.35l-14.52-19.12-2.15,2.14v13.42a6.16,6.16,0,0,1-6.18,6.15h0c-10.77,0-4.32-15.49-6.2-48.22a6.19,6.19,0,0,1,6.2-6.15c9.34,0,5.31,13.22,6.19,19.37,17.53-16.77,17.11-18.53,20.71-18.53,5,0,8,6.18,4.71,9.47l-14.11,14L252.46,180C257.44,186.42,247.5,193.87,242.58,187.35Z" transform="translate(-1 -1)"/></svg>