<?xml version="1.0" encoding="utf-8"?>
<!-- Generator: Adobe Illustrator 23.0.6, SVG Export Plug-In . SVG Version: 6.00 Build 0)  -->
<svg version="1.1" id="Layer_1" xmlns="http://www.w3.org/2000/svg" xmlns:xlink="http://www.w3.org/1999/xlink" x="0px" y="0px"
	 viewBox="0 0 350 350" style="enable-background:new 0 0 350 350;" xml:space="preserve">
<style type="text/css">
	.st0{fill:#FFFFFF;}
	.st1{fill:#231F20;}
</style>
<circle class="st0" cx="175" cy="175" r="174"/>
<title>icon 1</title>
<path class="st1" d="M176.1,79.2c-57.5,0-104,37.6-104,84.1c0,44.4,42.6,80.7,96.5,83.8c1.9,1.2,3.2,3.3,2.4,6.7
	c-2,8.5-2.8,12.2-4.3,15.9c-1.5,3.7-1.7,5.7,0,7.4c1.7,1.7,3,1.5,7.8-1.1c4.8-2.6,24.4-13.3,38.9-23.5
	c14.6-10.2,35.9-27.6,43.8-36.6v0c14.3-14.4,22.9-32.7,22.9-52.6C280.2,116.8,233.6,79.2,176.1,79.2z M134.9,188.8h-20
	c-0.2,0-0.4,0-0.6,0c-0.2,0-0.4,0-0.6,0c-3.1,0-5.6-2.5-5.6-5.6l0,0v-40.8c0-3.1,2.5-5.6,5.6-5.6c3.1,0,5.6,2.5,5.6,5.6v35.2h15.5
	c3.1,0,5.6,2.5,5.6,5.6S138,188.8,134.9,188.8L134.9,188.8z M155.9,183.2c0,3.1-2.5,5.6-5.6,5.6l0,0c-3.1,0-5.6-2.5-5.6-5.6v-40.8
	c0-3.1,2.5-5.6,5.6-5.6l0,0c3.1,0,5.6,2.5,5.6,5.6V183.2z M205.6,183.2c0,3.1-2.5,5.6-5.6,5.6c-2.1,0-4-1.2-5-3.1
	c-0.4-0.3-0.8-0.7-1.1-1.1l-19.2-25.8v24.4c0,3.1-2.5,5.6-5.6,5.6l0,0c-3.1,0-5.6-2.5-5.6-5.6v-40.8c0-3.1,2.5-5.6,5.6-5.6l0,0
	c2.1,0.3,4,1.3,5.3,2.9l19.9,26.8v-24.1c0-3.1,2.5-5.6,5.6-5.6c3.1,0,5.6,2.5,5.6,5.6V183.2z M244.5,142.3c0,3.1-2.5,5.6-5.6,5.6
	h-15.5v9.2h15.5c3.1,0,5.6,2.5,5.6,5.6c0,0,0,0,0,0l0,0c0,3.1-2.5,5.6-5.6,5.6h-15.5v9.2h15.5c3.1,0,5.6,2.5,5.6,5.6
	s-2.5,5.6-5.6,5.6l0,0H221c-0.5,0-1.1-0.1-1.6-0.3c-0.5,0.2-1.1,0.3-1.7,0.3c-3.1,0-5.6-2.5-5.6-5.6v-40.8c0-3.1,2.5-5.6,5.6-5.6
	h21.1C242,136.7,244.5,139.2,244.5,142.3L244.5,142.3z"/>
</svg>
