<svg id="Layer_1" data-name="Layer 1" xmlns="http://www.w3.org/2000/svg" viewBox="0 0 348 348"><defs><style>.cls-1{fill:#fff;}.cls-2{isolation:isolate;}.cls-3{fill:#231f20;}</style></defs><title>icon twiter</title><circle class="cls-1" cx="174" cy="174" r="174"/><g class="cls-2"><path class="cls-3" d="M264.73,119.43a77,77,0,0,1-18.44,19c.07,1.06.11,2.65.11,4.78a104.29,104.29,0,0,1-4.33,29.55,106.86,106.86,0,0,1-13.15,28.3,111.41,111.41,0,0,1-21,24,93.52,93.52,0,0,1-29.38,16.62,107.43,107.43,0,0,1-36.78,6.21,102.1,102.1,0,0,1-56.48-16.51,79.47,79.47,0,0,0,8.88.45,72,72,0,0,0,45.66-15.71,36.87,36.87,0,0,1-34.39-25.51,46.6,46.6,0,0,0,7,.57,38.32,38.32,0,0,0,9.68-1.25,36.2,36.2,0,0,1-21.13-12.7,35.54,35.54,0,0,1-8.37-23.4v-.46A36.38,36.38,0,0,0,109.18,158a36.73,36.73,0,0,1-12-13.09,36.87,36.87,0,0,1,.57-36.1A104.44,104.44,0,0,0,131.33,136a102.55,102.55,0,0,0,42.3,11.33,40.76,40.76,0,0,1-.91-8.43,36.82,36.82,0,0,1,63.66-25.16,72.24,72.24,0,0,0,23.34-8.89,35.71,35.71,0,0,1-16.17,20.27A73.19,73.19,0,0,0,264.73,119.43Z" transform="translate(-1 -1)"/></g></svg>