<svg id="Layer_1" data-name="Layer 1" xmlns="http://www.w3.org/2000/svg" viewBox="0 0 348 348"><defs><style>.cls-1{fill:#fff;}.cls-2{fill:#231f20;}</style></defs><title>icon wechat</title><circle class="cls-1" cx="174" cy="174" r="174"/><path class="cls-2" d="M142.55,80.17c-47,0-85.07,31.63-85.07,70.64,0,22.14,12.28,41.89,31.45,54.84a10.33,10.33,0,0,1,.66,3c0,2.56-3.85,14.12-4.49,16.66s.64,5.14,3.85,3.85,16.06-9,19.29-10.92a9.34,9.34,0,0,1,4.49-1.26,100.47,100.47,0,0,0,29.82,4.51c1.32,0,2.63,0,3.91-.08a58.44,58.44,0,0,1-2.3-16.32c0-36.34,33.21-65.77,74.17-65.77,2.79,0,5.54.14,8.25.4C220.16,106,185,80.17,142.55,80.17Zm-27.93,59.72a11.56,11.56,0,1,1,11.56-11.56,11.56,11.56,0,0,1-11.56,11.56Zm56.51,0a11.56,11.56,0,1,1,11.56-11.56h0a11.55,11.55,0,0,1-11.54,11.56Z" transform="translate(-1 -1)"/><path class="cls-2" d="M292.52,204c0-32.53-31.63-58.91-70.65-58.91S151.24,171.46,151.24,204s31.65,58.91,70.63,58.91A83.17,83.17,0,0,0,247,259.07a10.11,10.11,0,0,1,3.15.87c3.86,1.93,15.42,9,16.66,9.65s3.85,0,3.21-2.57-3.79-10.89-3.79-14.1a7.06,7.06,0,0,1,.87-3.63C282.61,238.48,292.52,222.2,292.52,204Zm-94.4-8.87a9.65,9.65,0,1,1,9.64-9.65,9.65,9.65,0,0,1-9.64,9.65Zm47.52,0a9.65,9.65,0,1,1,9.65-9.65,9.65,9.65,0,0,1-9.65,9.65Z" transform="translate(-1 -1)"/></svg>