<svg id="Layer_1" data-name="Layer 1" xmlns="http://www.w3.org/2000/svg" viewBox="0 0 348 348"><defs><style>.cls-1{fill:#ebebeb;}.cls-2{fill:#231f20;}</style></defs><title>icon-grey-instargam</title><circle class="cls-1" cx="174" cy="174" r="174"/><path class="cls-2" d="M258.58,174q0,25.22-.56,34.91-1.09,22.91-13.65,35.46T208.91,258q-9.69.56-34.91.56T139.09,258q-22.91-1.1-35.46-13.65T90,208.91q-.56-9.69-.56-34.91T90,139.09q1.09-22.91,13.65-35.46T139.09,90q9.69-.54,34.91-.55t34.91.55q22.91,1.11,35.46,13.66T258,139.09Q258.58,148.78,258.58,174Zm-76.16-69.43-8.42.05-8.42-.05c-5.11,0-9,0-11.62,0s-6.18.15-10.63.33A87.79,87.79,0,0,0,132,106a43.77,43.77,0,0,0-7.88,2A28.75,28.75,0,0,0,108,124.11a43.77,43.77,0,0,0-2,7.88,87.94,87.94,0,0,0-1.1,11.34q-.29,6.66-.33,10.63t0,11.62q0,7.65.05,8.42c0,.51,0,3.32-.05,8.43s0,9,0,11.61.15,6.18.33,10.63A87.79,87.79,0,0,0,106,216a43.77,43.77,0,0,0,2,7.88A28.81,28.81,0,0,0,124.11,240a45.51,45.51,0,0,0,7.88,2,87.94,87.94,0,0,0,11.34,1.1q6.66.28,10.63.33t11.62,0l8.42-.05,8.42.05c5.11,0,9,0,11.62,0s6.18-.15,10.63-.33A87.79,87.79,0,0,0,216,242a45.51,45.51,0,0,0,7.88-2A28.81,28.81,0,0,0,240,223.89a43.77,43.77,0,0,0,2-7.88,87.94,87.94,0,0,0,1.1-11.34q.28-6.66.33-10.63t0-11.61q0-7.67-.05-8.43c0-.51,0-3.31.05-8.42s0-9,0-11.62-.15-6.18-.33-10.63A87.79,87.79,0,0,0,242,132a43.77,43.77,0,0,0-2-7.88A28.75,28.75,0,0,0,223.89,108a43.77,43.77,0,0,0-7.88-2,87.94,87.94,0,0,0-11.34-1.1q-6.66-.29-10.63-.33t-11.62,0Zm22.3,38.71a43.44,43.44,0,1,1-61.44,0A43.58,43.58,0,0,1,204.72,143.28Zm-10.79,50.65a28.19,28.19,0,1,0-39.13-40.59l-.73.73a28.19,28.19,0,0,0,39.13,40.59Zm32.38-72.24a10.12,10.12,0,1,1-7.16-3A9.76,9.76,0,0,1,226.31,121.69Z"/></svg>