<svg id="Layer_1" data-name="Layer 1" xmlns="http://www.w3.org/2000/svg" viewBox="0 0 348 348"><defs><style>.cls-1{fill:#ebebeb;}.cls-2{fill:#231f20;}</style></defs><title>icon-grey-line</title><circle class="cls-1" cx="174" cy="174" r="174"/><path class="cls-2" d="M176.1,79.2c-57.5,0-104,37.6-104,84.1,0,44.4,42.6,80.7,96.5,83.8,1.9,1.2,3.2,3.3,2.4,6.7-2,8.5-2.8,12.2-4.3,15.9s-1.7,5.7,0,7.4,3,1.5,7.8-1.1,24.4-13.3,38.9-23.5,35.9-27.6,43.8-36.6h0c14.3-14.4,22.9-32.7,22.9-52.6C280.2,116.8,233.6,79.2,176.1,79.2ZM134.9,188.8H113.7a5.59,5.59,0,0,1-5.6-5.6h0V142.4a5.6,5.6,0,0,1,11.2,0v35.2h15.5a5.59,5.59,0,0,1,5.6,5.6,5.51,5.51,0,0,1-5.5,5.6Zm21-5.6a5.59,5.59,0,0,1-5.6,5.6h0a5.59,5.59,0,0,1-5.6-5.6V142.4a5.59,5.59,0,0,1,5.6-5.6h0a5.59,5.59,0,0,1,5.6,5.6Zm49.7,0a5.59,5.59,0,0,1-5.6,5.6,5.67,5.67,0,0,1-5-3.1,5.73,5.73,0,0,1-1.1-1.1l-19.2-25.8v24.4a5.59,5.59,0,0,1-5.6,5.6h0a5.59,5.59,0,0,1-5.6-5.6V142.4a5.59,5.59,0,0,1,5.6-5.6h0a8.27,8.27,0,0,1,5.3,2.9l19.9,26.8V142.4a5.6,5.6,0,0,1,11.2,0v40.8Zm38.9-40.9a5.59,5.59,0,0,1-5.6,5.6H223.4v9.2h15.5a5.59,5.59,0,0,1,5.6,5.6h0a5.59,5.59,0,0,1-5.6,5.6H223.4v9.2h15.5a5.6,5.6,0,0,1,0,11.2H221a4.53,4.53,0,0,1-1.6-.3,4.67,4.67,0,0,1-1.7.3,5.59,5.59,0,0,1-5.6-5.6V142.3a5.59,5.59,0,0,1,5.6-5.6h21.1a5.61,5.61,0,0,1,5.7,5.6Z" transform="translate(-1 -1)"/></svg>