<svg id="Layer_1" data-name="Layer 1" xmlns="http://www.w3.org/2000/svg" viewBox="0 0 348 348"><defs><style>.cls-1{fill:#ebebeb;}.cls-2{fill:#231f20;}</style></defs><title>icon-grey-twiter</title><circle class="cls-1" cx="174" cy="174" r="174"/><path class="cls-2" d="M263.73,118.43a76.89,76.89,0,0,1-18.44,19c.07,1.06.11,2.65.11,4.78a104.46,104.46,0,0,1-4.33,29.55,106.8,106.8,0,0,1-13.15,28.3,111.32,111.32,0,0,1-21,24,93.36,93.36,0,0,1-29.38,16.62,107.39,107.39,0,0,1-36.78,6.21,102.07,102.07,0,0,1-56.48-16.51,77.44,77.44,0,0,0,8.88.45,72,72,0,0,0,45.66-15.71,36.87,36.87,0,0,1-34.39-25.51,45.68,45.68,0,0,0,7,.57,38.08,38.08,0,0,0,9.68-1.25A36.18,36.18,0,0,1,100,176.23a35.51,35.51,0,0,1-8.37-23.4v-.46A36.38,36.38,0,0,0,108.18,157a36.74,36.74,0,0,1-11.43-49.19A104.46,104.46,0,0,0,130.33,135a102.58,102.58,0,0,0,42.3,11.33,40.52,40.52,0,0,1-.91-8.43,36.82,36.82,0,0,1,63.66-25.16,72.18,72.18,0,0,0,23.34-8.89,35.71,35.71,0,0,1-16.17,20.27A73,73,0,0,0,263.73,118.43Z"/></svg>