<svg id="Layer_1" data-name="Layer 1" xmlns="http://www.w3.org/2000/svg" viewBox="0 0 348 348"><defs><style>.cls-1{fill:#ebebeb;}.cls-2{fill:#231f20;}</style></defs><title>icon-grey-wechat</title><circle class="cls-1" cx="174" cy="174" r="174"/><path class="cls-2" d="M141.55,79.17c-47,0-85.07,31.63-85.07,70.64,0,22.14,12.28,41.89,31.45,54.84a10.27,10.27,0,0,1,.66,3c0,2.56-3.85,14.12-4.49,16.66s.64,5.14,3.85,3.85,16.06-9,19.29-10.92a9.34,9.34,0,0,1,4.49-1.26,100.19,100.19,0,0,0,29.82,4.51c1.32,0,2.63,0,3.91-.08a58.5,58.5,0,0,1-2.3-16.32c0-36.34,33.21-65.77,74.17-65.77,2.79,0,5.54.14,8.25.4C219.16,105,184,79.17,141.55,79.17Zm-27.93,59.72a11.56,11.56,0,1,1,11.56-11.56h0A11.57,11.57,0,0,1,113.62,138.89Zm56.51,0a11.56,11.56,0,1,1,11.56-11.56h0a11.55,11.55,0,0,1-11.54,11.56Z"/><path class="cls-2" d="M291.52,203c0-32.53-31.63-58.91-70.65-58.91S150.24,170.46,150.24,203s31.65,58.91,70.63,58.91A83,83,0,0,0,246,258.07a10.19,10.19,0,0,1,3.15.87c3.86,1.93,15.42,9,16.66,9.65s3.85,0,3.21-2.57-3.79-10.89-3.79-14.1a7.06,7.06,0,0,1,.87-3.63C281.61,237.48,291.52,221.2,291.52,203Zm-94.4-8.87a9.65,9.65,0,1,1,9.64-9.66h0A9.65,9.65,0,0,1,197.12,194.13Zm47.52,0a9.65,9.65,0,1,1,9.65-9.65h0A9.65,9.65,0,0,1,244.64,194.13Z"/></svg>