<svg id="Layer_1" data-name="Layer 1" xmlns="http://www.w3.org/2000/svg" viewBox="0 0 291.14 78.82"><defs><style>.cls-1{fill:none;stroke:#dcd9d2;stroke-linecap:round;stroke-linejoin:round;stroke-width:4px;}.cls-2{fill:#28256a;}.cls-3{fill:#fff;}.cls-4{fill:#a7a1bf;}.cls-5{fill:#9a8157;}.cls-6{fill:#cfc1ac;}.cls-7{fill:#231f20;}</style></defs><title>logo footer</title><circle class="cls-1" cx="25.85" cy="25.85" r="23.85"/><path class="cls-1" d="M417.52,480.56a22.7,22.7,0,0,1-2.95-.39l.43-2.09a19.92,19.92,0,0,0,2.67.36Zm3,0-.14-2.12a20,20,0,0,0,2.66-.36l.43,2.08A22.49,22.49,0,0,1,420.5,480.56Zm-8.8-1.19a21.27,21.27,0,0,1-2.73-1.19l1-1.89a19.88,19.88,0,0,0,2.46,1.07Zm14.62,0-.71-2a20.56,20.56,0,0,0,2.46-1.07l1,1.88A21.27,21.27,0,0,1,426.32,479.35Zm-19.9-2.72a21.94,21.94,0,0,1-2.31-1.87l1.45-1.56a20.13,20.13,0,0,0,2.09,1.7Zm25.17,0-1.23-1.73a21.25,21.25,0,0,0,2.09-1.7l1.45,1.55A20.83,20.83,0,0,1,431.59,476.61Zm-29.51-4a21.71,21.71,0,0,1-1.73-2.42l1.82-1.11a19.68,19.68,0,0,0,1.55,2.19Zm33.85,0-1.65-1.35a18.45,18.45,0,0,0,1.55-2.19l1.82,1.1A21.87,21.87,0,0,1,435.93,472.56Zm-36.95-5a20.43,20.43,0,0,1-1-2.81l2-.58a18.58,18.58,0,0,0,.91,2.53Zm40,0-1.95-.85a19,19,0,0,0,.9-2.53l2,.57A21.85,21.85,0,0,1,439,467.48Zm-41.65-5.68a21.08,21.08,0,0,1-.21-3h2.13a19.89,19.89,0,0,0,.18,2.68Zm43.25-.05-2.11-.28a20.15,20.15,0,0,0,.19-2.69l1.48,0,.64,0A22.52,22.52,0,0,1,440.62,461.75Zm-41.16-5.61-2.1-.28a21.88,21.88,0,0,1,.59-2.92l2.05.57A19.47,19.47,0,0,0,399.46,456.14Zm39-.11a19.49,19.49,0,0,0-.55-2.63l2.05-.58a22.12,22.12,0,0,1,.61,2.91ZM400.9,451l-1.95-.84a22.07,22.07,0,0,1,1.36-2.65l1.82,1.1A20,20,0,0,0,400.9,451Zm36.14-.1a20.64,20.64,0,0,0-1.24-2.38l1.81-1.11A22,22,0,0,1,439,450Zm-33.36-4.49L402,445a21.93,21.93,0,0,1,2-2.18l1.45,1.55A21.24,21.24,0,0,0,403.68,446.38Zm30.56-.08a20.14,20.14,0,0,0-1.85-2l1.45-1.56a23.19,23.19,0,0,1,2,2.17Zm-26.65-3.59L406.36,441a21.87,21.87,0,0,1,2.54-1.56l1,1.89A19.21,19.21,0,0,0,407.59,442.71Zm22.71-.06a18.49,18.49,0,0,0-2.3-1.39l1-1.89a22.14,22.14,0,0,1,2.55,1.54Zm-18-2.42-.72-2a22.27,22.27,0,0,1,2.87-.81l.44,2.08A19.13,19.13,0,0,0,412.34,440.23Zm13.2,0a19.6,19.6,0,0,0-2.6-.71l.43-2.09a21.79,21.79,0,0,1,2.87.8Zm-8-1.06-.15-2.12a22.79,22.79,0,0,1,3,0l-.14,2.12A20.12,20.12,0,0,0,417.59,439.13Z" transform="translate(-393.15 -432.94)"/><circle class="cls-1" cx="25.85" cy="25.85" r="18.31"/><path class="cls-1" d="M419,477.8a19,19,0,1,1,19-19A19,19,0,0,1,419,477.8Zm0-36.61a17.6,17.6,0,1,0,17.6,17.59A17.62,17.62,0,0,0,419,441.19Z" transform="translate(-393.15 -432.94)"/><circle class="cls-1" cx="25.85" cy="25.85" r="12.93"/><path class="cls-1" d="M419,472.42a13.64,13.64,0,1,1,13.64-13.64A13.65,13.65,0,0,1,419,472.42Zm0-25.86a12.23,12.23,0,1,0,12.22,12.22A12.23,12.23,0,0,0,419,446.56Z" transform="translate(-393.15 -432.94)"/><circle class="cls-1" cx="52.97" cy="25.85" r="23.85"/><path class="cls-1" d="M444.65,480.56a22.47,22.47,0,0,1-2.95-.39l.43-2.09a19.77,19.77,0,0,0,2.66.36Zm3,0-.14-2.12a19.77,19.77,0,0,0,2.66-.36l.43,2.08A22.26,22.26,0,0,1,447.62,480.56Zm-8.79-1.19a20.81,20.81,0,0,1-2.74-1.19l1-1.89a19.38,19.38,0,0,0,2.47,1.07Zm14.61,0-.71-2a19.88,19.88,0,0,0,2.46-1.07l1,1.88A21.27,21.27,0,0,1,453.44,479.35Zm-19.89-2.72a23.14,23.14,0,0,1-2.32-1.87l1.45-1.56a21.25,21.25,0,0,0,2.09,1.7Zm25.17,0-1.23-1.73a20,20,0,0,0,2.08-1.7l1.45,1.55A21.69,21.69,0,0,1,458.72,476.61Zm-29.52-4a20.41,20.41,0,0,1-1.72-2.42l1.81-1.11a19.77,19.77,0,0,0,1.56,2.19Zm33.85,0-1.65-1.35A19.77,19.77,0,0,0,463,469l1.81,1.1A20.63,20.63,0,0,1,463.05,472.56Zm-36.95-5a23.47,23.47,0,0,1-1-2.81l2-.58a18.54,18.54,0,0,0,.9,2.53Zm40,0-1.94-.85a20.51,20.51,0,0,0,.89-2.53l2.05.57A20.43,20.43,0,0,1,466.14,467.48Zm-41.65-5.68a22.68,22.68,0,0,1-.2-3h2.12a19.89,19.89,0,0,0,.19,2.68Zm43.26-.05-2.11-.28a20.15,20.15,0,0,0,.18-2.69l1.49,0,.64,0A22.52,22.52,0,0,1,467.75,461.75Zm-41.16-5.61-2.11-.28a20.43,20.43,0,0,1,.6-2.92l2.05.57A19.47,19.47,0,0,0,426.59,456.14Zm39-.11a19.52,19.52,0,0,0-.56-2.63l2.05-.58a20.61,20.61,0,0,1,.61,2.91ZM428,451l-1.95-.84a20.77,20.77,0,0,1,1.37-2.65l1.81,1.1A21.56,21.56,0,0,0,428,451Zm36.14-.1a17.92,17.92,0,0,0-1.24-2.38l1.81-1.11a22,22,0,0,1,1.38,2.63Zm-33.36-4.49L429.15,445a23.19,23.19,0,0,1,2-2.18l1.45,1.55A22.7,22.7,0,0,0,430.8,446.38Zm30.56-.08a21.33,21.33,0,0,0-1.84-2l1.45-1.56a23.08,23.08,0,0,1,2,2.17Zm-26.65-3.59L433.48,441a22.74,22.74,0,0,1,2.54-1.56l1,1.89A19.21,19.21,0,0,0,434.71,442.71Zm22.72-.06a20.08,20.08,0,0,0-2.3-1.39l1-1.89a21.32,21.32,0,0,1,2.55,1.54Zm-18-2.42-.72-2a21.4,21.4,0,0,1,2.87-.81l.43,2.08A19.41,19.41,0,0,0,439.47,440.23Zm13.19,0a19.46,19.46,0,0,0-2.59-.71l.42-2.09a22.37,22.37,0,0,1,2.88.8Zm-8-1.06-.15-2.12a22.8,22.8,0,0,1,3,0l-.14,2.12A20.12,20.12,0,0,0,444.71,439.13Z" transform="translate(-393.15 -432.94)"/><circle class="cls-1" cx="52.97" cy="25.85" r="18.31"/><path class="cls-1" d="M446.12,477.8a19,19,0,1,1,19-19A19,19,0,0,1,446.12,477.8Zm0-36.61a17.6,17.6,0,1,0,17.59,17.59A17.61,17.61,0,0,0,446.12,441.19Z" transform="translate(-393.15 -432.94)"/><circle class="cls-1" cx="52.97" cy="25.85" r="12.93"/><path class="cls-1" d="M446.12,472.42a13.64,13.64,0,1,1,13.64-13.64A13.64,13.64,0,0,1,446.12,472.42Zm0-25.86a12.23,12.23,0,1,0,12.22,12.22A12.24,12.24,0,0,0,446.12,446.56Z" transform="translate(-393.15 -432.94)"/><circle class="cls-1" cx="52.97" cy="52.97" r="23.85"/><path class="cls-1" d="M444.65,507.69a22.49,22.49,0,0,1-2.95-.4l.43-2.08a19.77,19.77,0,0,0,2.66.36Zm3,0-.15-2.12a21.54,21.54,0,0,0,2.66-.37l.43,2.08A22.36,22.36,0,0,1,447.63,507.69Zm-8.8-1.2a20.81,20.81,0,0,1-2.74-1.19l1-1.88a19.38,19.38,0,0,0,2.47,1.07Zm14.61,0-.71-2a19.88,19.88,0,0,0,2.46-1.07l1,1.89A24.49,24.49,0,0,1,453.44,506.48Zm-19.89-2.72a20.83,20.83,0,0,1-2.31-1.88l1.44-1.55a19.8,19.8,0,0,0,2.09,1.69Zm25.16,0L457.49,502a19.56,19.56,0,0,0,2.08-1.7l1.45,1.56A20.83,20.83,0,0,1,458.71,503.74Zm-29.51-4a21.37,21.37,0,0,1-1.72-2.43l1.81-1.11a19.77,19.77,0,0,0,1.56,2.19Zm33.85,0-1.65-1.34a19,19,0,0,0,1.56-2.2l1.81,1.11A19.73,19.73,0,0,1,463.05,499.68Zm-36.95-5a23.32,23.32,0,0,1-1-2.8l2-.58a19,19,0,0,0,.9,2.53Zm40,0-1.94-.85a20.51,20.51,0,0,0,.89-2.53l2.05.57A20,20,0,0,1,466.14,494.6Zm-41.65-5.68a22.68,22.68,0,0,1-.2-3h2.12a20,20,0,0,0,.19,2.68Zm43.26,0-2.11-.29a20,20,0,0,0,.18-2.68l1.48-.06.65,0A22.75,22.75,0,0,1,467.75,488.88Zm-41.16-5.62-2.11-.28a21,21,0,0,1,.6-2.92l2.05.57A19.79,19.79,0,0,0,426.59,483.26Zm39-.11a19.52,19.52,0,0,0-.56-2.63l2.05-.58a20.45,20.45,0,0,1,.61,2.92Zm-37.61-5-1.95-.85a20.77,20.77,0,0,1,1.37-2.65l1.81,1.11A20.72,20.72,0,0,0,428,478.1Zm36.14-.11a19.24,19.24,0,0,0-1.24-2.38l1.81-1.11a22.08,22.08,0,0,1,1.38,2.64Zm-33.36-4.48-1.65-1.34a22,22,0,0,1,2-2.18l1.45,1.55A20.13,20.13,0,0,0,430.8,473.51Zm30.56-.09a21.33,21.33,0,0,0-1.84-2l1.45-1.55a20.85,20.85,0,0,1,2,2.17Zm-26.65-3.58-1.23-1.74a22.66,22.66,0,0,1,2.54-1.55l1,1.88A20.7,20.7,0,0,0,434.71,469.84Zm22.72-.07a20.66,20.66,0,0,0-2.3-1.39l1-1.89a21.32,21.32,0,0,1,2.55,1.54Zm-18-2.42-.72-2a23.48,23.48,0,0,1,2.87-.81l.43,2.08A21,21,0,0,0,439.47,467.35Zm13.19,0a19.5,19.5,0,0,0-2.59-.72l.42-2.08a20.82,20.82,0,0,1,2.88.79Zm-8-1.07-.15-2.12a22.8,22.8,0,0,1,3,0l-.14,2.13A20.12,20.12,0,0,0,444.71,466.25Z" transform="translate(-393.15 -432.94)"/><circle class="cls-1" cx="52.97" cy="52.97" r="18.31"/><path class="cls-1" d="M446.12,504.92a19,19,0,1,1,19-19A19,19,0,0,1,446.12,504.92Zm0-36.61a17.6,17.6,0,1,0,17.59,17.6A17.61,17.61,0,0,0,446.12,468.31Z" transform="translate(-393.15 -432.94)"/><circle class="cls-1" cx="52.97" cy="52.97" r="12.93"/><path class="cls-1" d="M446.12,499.55a13.64,13.64,0,1,1,13.64-13.64A13.65,13.65,0,0,1,446.12,499.55Zm0-25.86a12.22,12.22,0,1,0,12.22,12.22A12.24,12.24,0,0,0,446.12,473.69Z" transform="translate(-393.15 -432.94)"/><circle class="cls-1" cx="25.85" cy="52.97" r="23.85"/><path class="cls-1" d="M417.53,507.69a22.41,22.41,0,0,1-3-.4l.43-2.08a19.92,19.92,0,0,0,2.67.36Zm3,0-.14-2.12a21.81,21.81,0,0,0,2.66-.37l.43,2.08A22.51,22.51,0,0,1,420.5,507.69Zm-8.8-1.2A20.12,20.12,0,0,1,409,505.3l1-1.88a19.88,19.88,0,0,0,2.46,1.07Zm14.62,0-.72-2a20,20,0,0,0,2.47-1.07l1,1.89A24.49,24.49,0,0,1,426.32,506.48Zm-19.9-2.72a22.86,22.86,0,0,1-2.31-1.88l1.45-1.55a19.8,19.8,0,0,0,2.09,1.69Zm25.17,0L430.36,502a18.71,18.71,0,0,0,2.09-1.7l1.45,1.56A22.86,22.86,0,0,1,431.59,503.74Zm-29.51-4a22.8,22.8,0,0,1-1.73-2.43l1.82-1.11a19.68,19.68,0,0,0,1.55,2.19Zm33.85,0-1.65-1.34a18.91,18.91,0,0,0,1.55-2.2l1.82,1.11A22.14,22.14,0,0,1,435.93,499.68Zm-36.95-5a21.71,21.71,0,0,1-1-2.8l2-.58a20.61,20.61,0,0,0,.91,2.53Zm40,0-1.95-.85a19,19,0,0,0,.9-2.53l2,.57A21.32,21.32,0,0,1,439,494.6Zm-41.65-5.68a21.08,21.08,0,0,1-.21-3h2.13a20,20,0,0,0,.18,2.68Zm43.25,0-2.11-.29a20,20,0,0,0,.19-2.68l1.48-.06.64,0A22.75,22.75,0,0,1,440.62,488.88Zm-41.16-5.62-2.1-.28a22.54,22.54,0,0,1,.59-2.92l2.05.57A19.79,19.79,0,0,0,399.46,483.26Zm39-.11a19.49,19.49,0,0,0-.55-2.63l2-.58a20.48,20.48,0,0,1,.62,2.92Zm-37.6-5-1.95-.85a22.07,22.07,0,0,1,1.36-2.65l1.82,1.11A19.25,19.25,0,0,0,400.9,478.1ZM437,478a22.42,22.42,0,0,0-1.24-2.38l1.81-1.11a22.08,22.08,0,0,1,1.38,2.64Zm-33.36-4.48L402,472.17a20.88,20.88,0,0,1,2-2.18l1.45,1.55A19,19,0,0,0,403.68,473.51Zm30.56-.09a20.14,20.14,0,0,0-1.85-2l1.45-1.55a20.94,20.94,0,0,1,2,2.17Zm-26.65-3.58-1.23-1.74a21.8,21.8,0,0,1,2.54-1.55l1,1.88A20.7,20.7,0,0,0,407.59,469.84Zm22.71-.07a19.79,19.79,0,0,0-2.3-1.39l1-1.89a22.14,22.14,0,0,1,2.55,1.54Zm-18-2.42-.72-2a24,24,0,0,1,2.87-.81l.44,2.08A20.7,20.7,0,0,0,412.34,467.35Zm13.2,0a19.64,19.64,0,0,0-2.6-.72l.43-2.08a20.31,20.31,0,0,1,2.87.79Zm-8-1.07-.15-2.12a22.79,22.79,0,0,1,3,0l-.14,2.13A20.12,20.12,0,0,0,417.59,466.25Z" transform="translate(-393.15 -432.94)"/><circle class="cls-1" cx="25.85" cy="52.97" r="18.31"/><path class="cls-1" d="M419,504.92a19,19,0,1,1,19-19A19,19,0,0,1,419,504.92Zm0-36.61a17.6,17.6,0,1,0,17.6,17.6A17.62,17.62,0,0,0,419,468.31Z" transform="translate(-393.15 -432.94)"/><circle class="cls-1" cx="25.85" cy="52.97" r="12.93"/><path class="cls-1" d="M419,499.55a13.64,13.64,0,1,1,13.64-13.64A13.66,13.66,0,0,1,419,499.55Zm0-25.86a12.22,12.22,0,1,0,12.22,12.22A12.23,12.23,0,0,0,419,473.69Z" transform="translate(-393.15 -432.94)"/><circle class="cls-2" cx="25.85" cy="25.85" r="23.85"/><path class="cls-3" d="M417.52,480.56a22.7,22.7,0,0,1-2.95-.39l.43-2.09a19.92,19.92,0,0,0,2.67.36Zm3,0-.14-2.12a20,20,0,0,0,2.66-.36l.43,2.08A22.49,22.49,0,0,1,420.5,480.56Zm-8.8-1.19a21.27,21.27,0,0,1-2.73-1.19l1-1.89a19.88,19.88,0,0,0,2.46,1.07Zm14.62,0-.71-2a20.56,20.56,0,0,0,2.46-1.07l1,1.88A21.27,21.27,0,0,1,426.32,479.35Zm-19.9-2.72a21.94,21.94,0,0,1-2.31-1.87l1.45-1.56a20.13,20.13,0,0,0,2.09,1.7Zm25.17,0-1.23-1.73a21.25,21.25,0,0,0,2.09-1.7l1.45,1.55A20.83,20.83,0,0,1,431.59,476.61Zm-29.51-4a21.71,21.71,0,0,1-1.73-2.42l1.82-1.11a19.68,19.68,0,0,0,1.55,2.19Zm33.85,0-1.65-1.35a18.45,18.45,0,0,0,1.55-2.19l1.82,1.1A21.87,21.87,0,0,1,435.93,472.56Zm-36.95-5a20.43,20.43,0,0,1-1-2.81l2-.58a18.58,18.58,0,0,0,.91,2.53Zm40,0-1.95-.85a19,19,0,0,0,.9-2.53l2,.57A21.85,21.85,0,0,1,439,467.48Zm-41.65-5.68a21.08,21.08,0,0,1-.21-3h2.13a19.89,19.89,0,0,0,.18,2.68Zm43.25-.05-2.11-.28a20.15,20.15,0,0,0,.19-2.69l1.48,0,.64,0A22.52,22.52,0,0,1,440.62,461.75Zm-41.16-5.61-2.1-.28a21.88,21.88,0,0,1,.59-2.92l2.05.57A19.47,19.47,0,0,0,399.46,456.14Zm39-.11a19.49,19.49,0,0,0-.55-2.63l2.05-.58a22.12,22.12,0,0,1,.61,2.91ZM400.9,451l-1.95-.84a22.07,22.07,0,0,1,1.36-2.65l1.82,1.1A20,20,0,0,0,400.9,451Zm36.14-.1a20.64,20.64,0,0,0-1.24-2.38l1.81-1.11A22,22,0,0,1,439,450Zm-33.36-4.49L402,445a21.93,21.93,0,0,1,2-2.18l1.45,1.55A21.24,21.24,0,0,0,403.68,446.38Zm30.56-.08a20.14,20.14,0,0,0-1.85-2l1.45-1.56a23.19,23.19,0,0,1,2,2.17Zm-26.65-3.59L406.36,441a21.87,21.87,0,0,1,2.54-1.56l1,1.89A19.21,19.21,0,0,0,407.59,442.71Zm22.71-.06a18.49,18.49,0,0,0-2.3-1.39l1-1.89a22.14,22.14,0,0,1,2.55,1.54Zm-18-2.42-.72-2a22.27,22.27,0,0,1,2.87-.81l.44,2.08A19.13,19.13,0,0,0,412.34,440.23Zm13.2,0a19.6,19.6,0,0,0-2.6-.71l.43-2.09a21.79,21.79,0,0,1,2.87.8Zm-8-1.06-.15-2.12a22.79,22.79,0,0,1,3,0l-.14,2.12A20.12,20.12,0,0,0,417.59,439.13Z" transform="translate(-393.15 -432.94)"/><circle class="cls-3" cx="25.85" cy="25.85" r="18.31"/><path class="cls-2" d="M419,477.8a19,19,0,1,1,19-19A19,19,0,0,1,419,477.8Zm0-36.61a17.6,17.6,0,1,0,17.6,17.59A17.62,17.62,0,0,0,419,441.19Z" transform="translate(-393.15 -432.94)"/><circle class="cls-4" cx="25.85" cy="25.85" r="12.93"/><path class="cls-2" d="M419,472.42a13.64,13.64,0,1,1,13.64-13.64A13.65,13.65,0,0,1,419,472.42Zm0-25.86a12.23,12.23,0,1,0,12.22,12.22A12.23,12.23,0,0,0,419,446.56Z" transform="translate(-393.15 -432.94)"/><circle class="cls-5" cx="52.97" cy="25.85" r="23.85"/><path class="cls-3" d="M444.65,480.56a22.47,22.47,0,0,1-2.95-.39l.43-2.09a19.77,19.77,0,0,0,2.66.36Zm3,0-.14-2.12a19.77,19.77,0,0,0,2.66-.36l.43,2.08A22.26,22.26,0,0,1,447.62,480.56Zm-8.79-1.19a20.81,20.81,0,0,1-2.74-1.19l1-1.89a19.38,19.38,0,0,0,2.47,1.07Zm14.61,0-.71-2a19.88,19.88,0,0,0,2.46-1.07l1,1.88A21.27,21.27,0,0,1,453.44,479.35Zm-19.89-2.72a23.14,23.14,0,0,1-2.32-1.87l1.45-1.56a21.25,21.25,0,0,0,2.09,1.7Zm25.17,0-1.23-1.73a20,20,0,0,0,2.08-1.7l1.45,1.55A21.69,21.69,0,0,1,458.72,476.61Zm-29.52-4a20.41,20.41,0,0,1-1.72-2.42l1.81-1.11a19.77,19.77,0,0,0,1.56,2.19Zm33.85,0-1.65-1.35A19.77,19.77,0,0,0,463,469l1.81,1.1A20.63,20.63,0,0,1,463.05,472.56Zm-36.95-5a23.47,23.47,0,0,1-1-2.81l2-.58a18.54,18.54,0,0,0,.9,2.53Zm40,0-1.94-.85a20.51,20.51,0,0,0,.89-2.53l2.05.57A20.43,20.43,0,0,1,466.14,467.48Zm-41.65-5.68a22.68,22.68,0,0,1-.2-3h2.12a19.89,19.89,0,0,0,.19,2.68Zm43.26-.05-2.11-.28a20.15,20.15,0,0,0,.18-2.69l1.49,0,.64,0A22.52,22.52,0,0,1,467.75,461.75Zm-41.16-5.61-2.11-.28a20.43,20.43,0,0,1,.6-2.92l2.05.57A19.47,19.47,0,0,0,426.59,456.14Zm39-.11a19.52,19.52,0,0,0-.56-2.63l2.05-.58a20.61,20.61,0,0,1,.61,2.91ZM428,451l-1.95-.84a20.77,20.77,0,0,1,1.37-2.65l1.81,1.1A21.56,21.56,0,0,0,428,451Zm36.14-.1a17.92,17.92,0,0,0-1.24-2.38l1.81-1.11a22,22,0,0,1,1.38,2.63Zm-33.36-4.49L429.15,445a23.19,23.19,0,0,1,2-2.18l1.45,1.55A22.7,22.7,0,0,0,430.8,446.38Zm30.56-.08a21.33,21.33,0,0,0-1.84-2l1.45-1.56a23.08,23.08,0,0,1,2,2.17Zm-26.65-3.59L433.48,441a22.74,22.74,0,0,1,2.54-1.56l1,1.89A19.21,19.21,0,0,0,434.71,442.71Zm22.72-.06a20.08,20.08,0,0,0-2.3-1.39l1-1.89a21.32,21.32,0,0,1,2.55,1.54Zm-18-2.42-.72-2a21.4,21.4,0,0,1,2.87-.81l.43,2.08A19.41,19.41,0,0,0,439.47,440.23Zm13.19,0a19.46,19.46,0,0,0-2.59-.71l.42-2.09a22.37,22.37,0,0,1,2.88.8Zm-8-1.06-.15-2.12a22.8,22.8,0,0,1,3,0l-.14,2.12A20.12,20.12,0,0,0,444.71,439.13Z" transform="translate(-393.15 -432.94)"/><circle class="cls-3" cx="52.97" cy="25.85" r="18.31"/><path class="cls-5" d="M446.12,477.8a19,19,0,1,1,19-19A19,19,0,0,1,446.12,477.8Zm0-36.61a17.6,17.6,0,1,0,17.59,17.59A17.61,17.61,0,0,0,446.12,441.19Z" transform="translate(-393.15 -432.94)"/><circle class="cls-6" cx="52.97" cy="25.85" r="12.93"/><path class="cls-5" d="M446.12,472.42a13.64,13.64,0,1,1,13.64-13.64A13.64,13.64,0,0,1,446.12,472.42Zm0-25.86a12.23,12.23,0,1,0,12.22,12.22A12.24,12.24,0,0,0,446.12,446.56Z" transform="translate(-393.15 -432.94)"/><circle class="cls-2" cx="52.97" cy="52.97" r="23.85"/><path class="cls-3" d="M444.65,507.69a22.49,22.49,0,0,1-2.95-.4l.43-2.08a19.77,19.77,0,0,0,2.66.36Zm3,0-.15-2.12a21.54,21.54,0,0,0,2.66-.37l.43,2.08A22.36,22.36,0,0,1,447.63,507.69Zm-8.8-1.2a20.81,20.81,0,0,1-2.74-1.19l1-1.88a19.38,19.38,0,0,0,2.47,1.07Zm14.61,0-.71-2a19.88,19.88,0,0,0,2.46-1.07l1,1.89A24.49,24.49,0,0,1,453.44,506.48Zm-19.89-2.72a20.83,20.83,0,0,1-2.31-1.88l1.44-1.55a19.8,19.8,0,0,0,2.09,1.69Zm25.16,0L457.49,502a19.56,19.56,0,0,0,2.08-1.7l1.45,1.56A20.83,20.83,0,0,1,458.71,503.74Zm-29.51-4a21.37,21.37,0,0,1-1.72-2.43l1.81-1.11a19.77,19.77,0,0,0,1.56,2.19Zm33.85,0-1.65-1.34a19,19,0,0,0,1.56-2.2l1.81,1.11A19.73,19.73,0,0,1,463.05,499.68Zm-36.95-5a23.32,23.32,0,0,1-1-2.8l2-.58a19,19,0,0,0,.9,2.53Zm40,0-1.94-.85a20.51,20.51,0,0,0,.89-2.53l2.05.57A20,20,0,0,1,466.14,494.6Zm-41.65-5.68a22.68,22.68,0,0,1-.2-3h2.12a20,20,0,0,0,.19,2.68Zm43.26,0-2.11-.29a20,20,0,0,0,.18-2.68l1.48-.06.65,0A22.75,22.75,0,0,1,467.75,488.88Zm-41.16-5.62-2.11-.28a21,21,0,0,1,.6-2.92l2.05.57A19.79,19.79,0,0,0,426.59,483.26Zm39-.11a19.52,19.52,0,0,0-.56-2.63l2.05-.58a20.45,20.45,0,0,1,.61,2.92Zm-37.61-5-1.95-.85a20.77,20.77,0,0,1,1.37-2.65l1.81,1.11A20.72,20.72,0,0,0,428,478.1Zm36.14-.11a19.24,19.24,0,0,0-1.24-2.38l1.81-1.11a22.08,22.08,0,0,1,1.38,2.64Zm-33.36-4.48-1.65-1.34a22,22,0,0,1,2-2.18l1.45,1.55A20.13,20.13,0,0,0,430.8,473.51Zm30.56-.09a21.33,21.33,0,0,0-1.84-2l1.45-1.55a20.85,20.85,0,0,1,2,2.17Zm-26.65-3.58-1.23-1.74a22.66,22.66,0,0,1,2.54-1.55l1,1.88A20.7,20.7,0,0,0,434.71,469.84Zm22.72-.07a20.66,20.66,0,0,0-2.3-1.39l1-1.89a21.32,21.32,0,0,1,2.55,1.54Zm-18-2.42-.72-2a23.48,23.48,0,0,1,2.87-.81l.43,2.08A21,21,0,0,0,439.47,467.35Zm13.19,0a19.5,19.5,0,0,0-2.59-.72l.42-2.08a20.82,20.82,0,0,1,2.88.79Zm-8-1.07-.15-2.12a22.8,22.8,0,0,1,3,0l-.14,2.13A20.12,20.12,0,0,0,444.71,466.25Z" transform="translate(-393.15 -432.94)"/><circle class="cls-3" cx="52.97" cy="52.97" r="18.31"/><path class="cls-2" d="M446.12,504.92a19,19,0,1,1,19-19A19,19,0,0,1,446.12,504.92Zm0-36.61a17.6,17.6,0,1,0,17.59,17.6A17.61,17.61,0,0,0,446.12,468.31Z" transform="translate(-393.15 -432.94)"/><circle class="cls-4" cx="52.97" cy="52.97" r="12.93"/><path class="cls-2" d="M446.12,499.55a13.64,13.64,0,1,1,13.64-13.64A13.65,13.65,0,0,1,446.12,499.55Zm0-25.86a12.22,12.22,0,1,0,12.22,12.22A12.24,12.24,0,0,0,446.12,473.69Z" transform="translate(-393.15 -432.94)"/><circle class="cls-5" cx="25.85" cy="52.97" r="23.85"/><path class="cls-3" d="M417.53,507.69a22.41,22.41,0,0,1-3-.4l.43-2.08a19.92,19.92,0,0,0,2.67.36Zm3,0-.14-2.12a21.81,21.81,0,0,0,2.66-.37l.43,2.08A22.51,22.51,0,0,1,420.5,507.69Zm-8.8-1.2A20.12,20.12,0,0,1,409,505.3l1-1.88a19.88,19.88,0,0,0,2.46,1.07Zm14.62,0-.72-2a20,20,0,0,0,2.47-1.07l1,1.89A24.49,24.49,0,0,1,426.32,506.48Zm-19.9-2.72a22.86,22.86,0,0,1-2.31-1.88l1.45-1.55a19.8,19.8,0,0,0,2.09,1.69Zm25.17,0L430.36,502a18.71,18.71,0,0,0,2.09-1.7l1.45,1.56A22.86,22.86,0,0,1,431.59,503.74Zm-29.51-4a22.8,22.8,0,0,1-1.73-2.43l1.82-1.11a19.68,19.68,0,0,0,1.55,2.19Zm33.85,0-1.65-1.34a18.91,18.91,0,0,0,1.55-2.2l1.82,1.11A22.14,22.14,0,0,1,435.93,499.68Zm-36.95-5a21.71,21.71,0,0,1-1-2.8l2-.58a20.61,20.61,0,0,0,.91,2.53Zm40,0-1.95-.85a19,19,0,0,0,.9-2.53l2,.57A21.32,21.32,0,0,1,439,494.6Zm-41.65-5.68a21.08,21.08,0,0,1-.21-3h2.13a20,20,0,0,0,.18,2.68Zm43.25,0-2.11-.29a20,20,0,0,0,.19-2.68l1.48-.06.64,0A22.75,22.75,0,0,1,440.62,488.88Zm-41.16-5.62-2.1-.28a22.54,22.54,0,0,1,.59-2.92l2.05.57A19.79,19.79,0,0,0,399.46,483.26Zm39-.11a19.49,19.49,0,0,0-.55-2.63l2-.58a20.48,20.48,0,0,1,.62,2.92Zm-37.6-5-1.95-.85a22.07,22.07,0,0,1,1.36-2.65l1.82,1.11A19.25,19.25,0,0,0,400.9,478.1ZM437,478a22.42,22.42,0,0,0-1.24-2.38l1.81-1.11a22.08,22.08,0,0,1,1.38,2.64Zm-33.36-4.48L402,472.17a20.88,20.88,0,0,1,2-2.18l1.45,1.55A19,19,0,0,0,403.68,473.51Zm30.56-.09a20.14,20.14,0,0,0-1.85-2l1.45-1.55a20.94,20.94,0,0,1,2,2.17Zm-26.65-3.58-1.23-1.74a21.8,21.8,0,0,1,2.54-1.55l1,1.88A20.7,20.7,0,0,0,407.59,469.84Zm22.71-.07a19.79,19.79,0,0,0-2.3-1.39l1-1.89a22.14,22.14,0,0,1,2.55,1.54Zm-18-2.42-.72-2a24,24,0,0,1,2.87-.81l.44,2.08A20.7,20.7,0,0,0,412.34,467.35Zm13.2,0a19.64,19.64,0,0,0-2.6-.72l.43-2.08a20.31,20.31,0,0,1,2.87.79Zm-8-1.07-.15-2.12a22.79,22.79,0,0,1,3,0l-.14,2.13A20.12,20.12,0,0,0,417.59,466.25Z" transform="translate(-393.15 -432.94)"/><circle class="cls-3" cx="25.85" cy="52.97" r="18.31"/><path class="cls-5" d="M419,504.92a19,19,0,1,1,19-19A19,19,0,0,1,419,504.92Zm0-36.61a17.6,17.6,0,1,0,17.6,17.6A17.62,17.62,0,0,0,419,468.31Z" transform="translate(-393.15 -432.94)"/><circle class="cls-6" cx="25.85" cy="52.97" r="12.93"/><path class="cls-5" d="M419,499.55a13.64,13.64,0,1,1,13.64-13.64A13.66,13.66,0,0,1,419,499.55Zm0-25.86a12.22,12.22,0,1,0,12.22,12.22A12.23,12.23,0,0,0,419,473.69Z" transform="translate(-393.15 -432.94)"/><path class="cls-1" d="M510.85,464.77l-.25,0a1,1,0,0,0-.26,0,4.39,4.39,0,0,0-1.3.55c-.69.37-1.57.79-2.62,1.24a23.48,23.48,0,0,1-3.61,1.2,17.18,17.18,0,0,1-4.22.5,20.78,20.78,0,0,1-5.56-.73,13.76,13.76,0,0,1-4.71-2.28,11.22,11.22,0,0,1-3.24-3.83,11.67,11.67,0,0,1,3.24-14.61,14.25,14.25,0,0,1,4.71-2.34,19.66,19.66,0,0,1,5.56-.78,22.2,22.2,0,0,1,4.25.37q1.91.36,3.33.78a17.69,17.69,0,0,1,2.25.78,4.26,4.26,0,0,0,1,.37.48.48,0,0,0,.39-.23c.1-.16.19-.28.25-.37l.69.55-3.58,5.56-.46-.32a1.27,1.27,0,0,0,0-.28,2.71,2.71,0,0,0-.07-.32c-.06-.34-.36-.68-.91-1a9.57,9.57,0,0,0-2-.95,23.47,23.47,0,0,0-2.57-.69,12.86,12.86,0,0,0-2.5-.27,12.28,12.28,0,0,0-3.7.55,9.13,9.13,0,0,0-3.08,1.61,7.89,7.89,0,0,0-2.09,2.59,8.31,8.31,0,0,0,0,7,7.93,7.93,0,0,0,2.09,2.6,9.31,9.31,0,0,0,3.08,1.61,12.6,12.6,0,0,0,3.7.55,14.68,14.68,0,0,0,3.07-.35,18.24,18.24,0,0,0,2.94-.87,9.49,9.49,0,0,0,2.23-1.2q.9-.66.9-1.26a.82.82,0,0,0-.19-.55l.65-.37,3,4.87Z" transform="translate(-393.15 -432.94)"/><path class="cls-1" d="M540.37,468.45c0-.47-.14-.73-.43-.79a5.86,5.86,0,0,0-1.13-.09H516.94v-.83c.92,0,1.38-.27,1.38-.82V445.06c0-.55-.46-.82-1.38-.82v-.83h7.91v.83c-.86,0-1.29.27-1.29.82v18.29h15.25a1.85,1.85,0,0,0,1.13-.33,1,1,0,0,0,.43-.87h.83v6.3Z" transform="translate(-393.15 -432.94)"/><path class="cls-1" d="M552.72,444.6c-.67,0-1,.28-1,.83v13.78c0,1.93.62,3.26,1.86,4a14.15,14.15,0,0,0,10.89,0c1.24-.71,1.86-2,1.86-4V445.43c0-.55-.46-.83-1.38-.83v-.82h7.35v.82c-.73,0-1.1.28-1.1.83V459a11.14,11.14,0,0,1-.78,4.48,6.57,6.57,0,0,1-2.35,2.83,9.6,9.6,0,0,1-3.88,1.42,38.86,38.86,0,0,1-10.7,0,9.6,9.6,0,0,1-3.88-1.42,6.55,6.55,0,0,1-2.34-2.83,11,11,0,0,1-.79-4.48V445.43c0-.55-.42-.83-1.28-.83v-.82h7.53Z" transform="translate(-393.15 -432.94)"/><path class="cls-1" d="M593.24,443.85a23.76,23.76,0,0,1,4.09.34,12.88,12.88,0,0,1,3.49,1.1,6.83,6.83,0,0,1,2.43,2,4.79,4.79,0,0,1,.92,3,4.19,4.19,0,0,1-1.33,3.33,9.58,9.58,0,0,1-3.17,1.81v.09a8.9,8.9,0,0,1,3.65,2.05,5.22,5.22,0,0,1,1.5,4,5.63,5.63,0,0,1-.6,2.55,5.89,5.89,0,0,1-1.77,2,9,9,0,0,1-2.87,1.36,14.26,14.26,0,0,1-3.86.48H578.86v-.83c.86,0,1.29-.27,1.29-.82V445.5c0-.55-.43-.83-1.29-.83v-.82Zm.92,9.46a9.52,9.52,0,0,0,3.42-.53,2.51,2.51,0,0,0,0-4.46,9.54,9.54,0,0,0-3.42-.52h-8.78v5.51Zm0,10.47a7.47,7.47,0,0,0,4.16-.89,2.86,2.86,0,0,0,0-4.74,7.47,7.47,0,0,0-4.16-.89h-8.78v6.52Z" transform="translate(-393.15 -432.94)"/><path class="cls-1" d="M639.94,451.42A10.92,10.92,0,0,1,645,453.8a6.48,6.48,0,0,1,2,5.14,7.26,7.26,0,0,1-1.65,5,11.26,11.26,0,0,1-4.06,3,16.91,16.91,0,0,1-5.14,1.32c-1.83.18-3.48.28-5,.28a35.21,35.21,0,0,1-4.9-.37,15.79,15.79,0,0,1-4.72-1.41,10.28,10.28,0,0,1-3.58-2.8,6.74,6.74,0,0,1-1.41-4.39,8.88,8.88,0,0,1,.51-3.22,6,6,0,0,1,1.47-2.19,8.82,8.82,0,0,1,2.32-1.53,19.9,19.9,0,0,1,3-1.12v-.12a8.65,8.65,0,0,1-4.18-2.07,5.47,5.47,0,0,1-1.78-4.3,7.15,7.15,0,0,1,1.32-4.52,9,9,0,0,1,3.37-2.61,15.66,15.66,0,0,1,4.45-1.24,37.14,37.14,0,0,1,4.58-.3,38.13,38.13,0,0,1,4.57.3,17.59,17.59,0,0,1,4.6,1.21,9.52,9.52,0,0,1,3.58,2.58,6.55,6.55,0,0,1,1.44,4.4,5.71,5.71,0,0,1-1.62,4.39,10.13,10.13,0,0,1-4.21,2.22v.06Zm-8.19,2.29q-8.6,0-8.59,5t8.59,5q8.61,0,8.61-5T631.75,453.71Zm.07-12.75a12.86,12.86,0,0,0-5.66.9,3.53,3.53,0,0,0,0,6,18,18,0,0,0,11.31,0,3.52,3.52,0,0,0,0-6A12.84,12.84,0,0,0,631.82,441Z" transform="translate(-393.15 -432.94)"/><path class="cls-1" d="M675.25,451.42a11,11,0,0,1,5.09,2.38,6.48,6.48,0,0,1,1.95,5.14,7.26,7.26,0,0,1-1.65,5,11.35,11.35,0,0,1-4.06,3,17,17,0,0,1-5.15,1.32c-1.82.18-3.48.28-5,.28a35.21,35.21,0,0,1-4.9-.37,15.71,15.71,0,0,1-4.72-1.41,10.19,10.19,0,0,1-3.58-2.8,6.69,6.69,0,0,1-1.42-4.39,8.65,8.65,0,0,1,.52-3.22,5.84,5.84,0,0,1,1.47-2.19,8.76,8.76,0,0,1,2.31-1.53,20.77,20.77,0,0,1,3-1.12v-.12a8.7,8.7,0,0,1-4.18-2.07,5.5,5.5,0,0,1-1.77-4.3,7.15,7.15,0,0,1,1.32-4.52,8.84,8.84,0,0,1,3.37-2.61,15.47,15.47,0,0,1,4.45-1.24,37,37,0,0,1,4.57-.3,38,38,0,0,1,4.57.3,17.56,17.56,0,0,1,4.61,1.21,9.49,9.49,0,0,1,3.57,2.58,6.5,6.5,0,0,1,1.45,4.4,5.72,5.72,0,0,1-1.63,4.39,10,10,0,0,1-4.21,2.22v.06Zm-8.18,2.29q-8.6,0-8.6,5t8.6,5q8.61,0,8.6-5T667.07,453.71Zm.06-12.75a12.81,12.81,0,0,0-5.65.9,3.52,3.52,0,0,0,0,6,18,18,0,0,0,11.31,0,3.53,3.53,0,0,0,0-6A12.89,12.89,0,0,0,667.13,441Z" transform="translate(-393.15 -432.94)"/><path class="cls-1" d="M595.13,492.43a3.77,3.77,0,0,1-1.21-.2c-.59-.17-.78-.73-1-2l-1.77-12c-.06-.4-.17-.6-.34-.6s-.28.16-.44.46l-5.29,11.11-5.3-11c-.26-.5-.38-.6-.53-.6s-.27.18-.33.51L577,490.83c-.09.67-.25,1.42-.79,1.54a2.42,2.42,0,0,1-.58.06c-.2,0-.32,0-.32.13s.16.22.35.22h4c.29,0,.46,0,.46-.22s-.13-.13-.28-.13a3.65,3.65,0,0,1-.82-.1c-.33-.08-.59-.25-.59-.62a6.16,6.16,0,0,1,.07-.92l1-7.73h.08c.68,1.46,1.85,3.9,2,4.31s1.76,3.52,2.23,4.42c.31.58.5,1,.68,1s.27-.18.72-1.09l4.24-8.84h.08l1.17,8.68c.07.55,0,.8-.1.84s-.22.11-.22.21.12.21.57.21h3.95c.27,0,.51-.06.51-.22s-.14-.13-.31-.13" transform="translate(-393.15 -432.94)"/><path class="cls-1" d="M603.92,490.28c-.12,0-.15.07-.19.25-.12.68-.31,1-.74,1.23a4.73,4.73,0,0,1-1.61.21c-1.75,0-2.28-.26-2.32-1.38,0-.49,0-1.89,0-2.45v-1.33c0-.09,0-.17.09-.17.44,0,2.38,0,2.69.08.64.06.85.31,1,.64s0,.42.05.6,0,.14.16.14.17-.24.17-.38,0-.77.07-1.1c.1-.84.15-1.11.15-1.2a.16.16,0,0,0-.15-.18c-.07,0-.13.1-.26.21s-.41.22-.82.26-2.61,0-3,0c-.11,0-.12-.07-.12-.17v-4.08c0-.1,0-.16.12-.16.35,0,2.39,0,2.68.08.85.08,1,.31,1.13.6a1.67,1.67,0,0,1,.12.6c0,.14,0,.22.13.22s.18-.2.19-.28.08-.91.1-1.08a8.13,8.13,0,0,1,.14-1.11c0-.08,0-.16-.12-.16a2,2,0,0,0-.27.08,5.5,5.5,0,0,1-.72.09c-.33,0-6.25,0-7.13,0-.26,0-.39,0-.39.15s.11.18.29.18a3.73,3.73,0,0,1,.67.05c.55.16.71.34.74.9s0,1,0,3.5v2.92c0,1.52,0,2.82-.08,3.52-.06.48-.16.79-.51.88a3.17,3.17,0,0,1-.59,0c-.23,0-.28.1-.28.18s.12.17.33.17l7.29,0c.64,0,.8,0,.91-.43a10.65,10.65,0,0,0,.24-1.82c0-.18,0-.39-.16-.39" transform="translate(-393.15 -432.94)"/><path class="cls-1" d="M618.91,492.46a1.53,1.53,0,0,1-.41,0,3.09,3.09,0,0,1-1.83-1.09c-1-1-2.24-2.52-3.75-4.39,1.67-1.34,2.37-2.44,2.37-3.66a2.89,2.89,0,0,0-1.21-2.27,5.91,5.91,0,0,0-3.24-.7h-5c-.25,0-.38,0-.38.15s.11.18.28.18a4.07,4.07,0,0,1,.69.05c.55.16.7.34.74.9s0,1,0,3.5V488c0,1.52,0,2.82-.08,3.52-.06.48-.15.8-.5.88a2.57,2.57,0,0,1-.61,0c-.21,0-.27.1-.27.18s.11.17.33.17h4.77c.21,0,.34-.05.34-.17a.19.19,0,0,0-.21-.18,6.14,6.14,0,0,1-.83,0c-.53-.08-.61-.4-.66-.88a35.18,35.18,0,0,1-.1-3.52v-.23a.12.12,0,0,1,.13-.14l1.54,0a.4.4,0,0,1,.31.11c.21.25.93,1.37,1.62,2.26a7.92,7.92,0,0,0,2.33,2.44,3.77,3.77,0,0,0,1.87.32h1.63c.22,0,.33,0,.33-.17a.2.2,0,0,0-.21-.18M612,486.55a1.68,1.68,0,0,1-1.2.28,4.61,4.61,0,0,1-1.31-.16c-.12-.06-.15-.12-.15-.3v-4.92c0-.13,0-.19.15-.23a6.38,6.38,0,0,1,1-.05,2.6,2.6,0,0,1,2.61,2.93,2.81,2.81,0,0,1-1.11,2.45" transform="translate(-393.15 -432.94)"/><path class="cls-1" d="M629.56,489.56c-.13,0-.17.08-.21.33a2.65,2.65,0,0,1-.59,1.12c-.67.75-1.51.87-3,.87a5.52,5.52,0,0,1-5.33-5.8,5.4,5.4,0,0,1,1.58-4.3,4.62,4.62,0,0,1,3.23-.93,4.85,4.85,0,0,1,3.3,1,2.39,2.39,0,0,1,.67,1.54c0,.21,0,.35.17.35s.21-.17.23-.41,0-1.24.06-1.79.08-.78.08-.91-.06-.17-.26-.19c-.5-.07-1.07-.19-1.71-.27a17,17,0,0,0-2.49-.19,7.7,7.7,0,0,0-5.42,1.76,6.36,6.36,0,0,0,.14,9.41,8.78,8.78,0,0,0,5.87,1.79,10.08,10.08,0,0,0,3.09-.37c.29-.12.37-.19.45-.48a15.45,15.45,0,0,0,.37-2.21c0-.13-.08-.29-.2-.29" transform="translate(-393.15 -432.94)"/><path class="cls-1" d="M644.66,480.19h-4c-.23,0-.34,0-.34.15s.09.18.28.18a2.93,2.93,0,0,1,.63.06c.54.15.68.33.72.9s0,1,0,3.5v2.08c0,1.69,0,3.13-1,4a3.21,3.21,0,0,1-2.3.87,3.29,3.29,0,0,1-2.15-.65c-.84-.66-1.31-1.6-1.31-4V485c0-2.52,0-3,.05-3.5s.17-.82.62-.9a2.29,2.29,0,0,1,.51-.06c.17,0,.27-.06.27-.18s-.13-.15-.37-.15h-4.77c-.26,0-.36,0-.36.15s.09.18.28.18a3.07,3.07,0,0,1,.67.06c.54.15.69.31.74.9s0,1,0,3.5v2.42c0,2.4.68,3.63,1.55,4.38a5.9,5.9,0,0,0,3.91,1.13,5.33,5.33,0,0,0,3.61-1.19c1.45-1.19,1.63-3.13,1.63-5V485c0-2.52,0-3,0-3.5s.17-.82.62-.9a2.5,2.5,0,0,1,.51-.06c.2,0,.29-.06.29-.18s-.11-.15-.34-.15" transform="translate(-393.15 -432.94)"/><path class="cls-1" d="M668.13,490.17c-.12,0-.16.08-.19.26-.12.67-.32,1-.75,1.22a4.7,4.7,0,0,1-1.61.21c-1.75,0-2.28-.25-2.31-1.37,0-.49,0-1.89,0-2.46v-1.32c0-.1,0-.18.09-.18.43,0,2.37,0,2.68.08.65.06.86.32,1,.64a5,5,0,0,1,.07.61c0,.07,0,.14.15.14s.17-.24.17-.38,0-.77.08-1.1c.1-.84.14-1.11.14-1.21a.15.15,0,0,0-.14-.17c-.08,0-.13.1-.27.21s-.41.21-.81.25-2.61,0-3,0c-.11,0-.12-.08-.12-.17v-4.09c0-.1,0-.15.12-.15.34,0,2.39,0,2.68.08.85.07,1,.31,1.12.6a1.48,1.48,0,0,1,.12.6c0,.14,0,.22.14.22s.17-.21.19-.28.08-.91.1-1.08a6.82,6.82,0,0,1,.13-1.08c0-.07,0-.15-.11-.15a2.05,2.05,0,0,0-.28.08c-.13,0-.4.07-.72.09s-4.12,0-4.66,0-1.58,0-2.47,0c-.26,0-.39,0-.39.16s.11.18.29.18a3.2,3.2,0,0,1,.68.05c.54.16.7.33.74.9s0,1,0,3.5V488c0,1.51,0,2.81-.08,3.52-.06.48-.16.79-.51.87a4.63,4.63,0,0,1-.83.06,3.74,3.74,0,0,1-.61,0,3.27,3.27,0,0,1-1.83-1.09c-1-1-2.23-2.53-3.75-4.4,1.67-1.34,2.38-2.43,2.38-3.65a2.9,2.9,0,0,0-1.21-2.28,6,6,0,0,0-3.25-.7h-5c-.26,0-.39,0-.39.16s.11.18.29.18a3.25,3.25,0,0,1,.68.05c.54.16.7.33.73.9s0,1,0,3.5V488c0,1.51,0,2.81-.08,3.52-.06.48-.16.79-.51.87a2.41,2.41,0,0,1-.6.06c-.22,0-.27.09-.27.18s.12.17.33.17h4.76c.22,0,.35-.06.35-.17a.19.19,0,0,0-.21-.18,6.38,6.38,0,0,1-.84-.06c-.52-.08-.6-.39-.66-.87-.08-.71-.09-2-.09-3.52v-.24a.12.12,0,0,1,.13-.13l1.54,0a.39.39,0,0,1,.3.11c.22.25.94,1.36,1.62,2.26a7.75,7.75,0,0,0,2.34,2.43,3.71,3.71,0,0,0,1.86.33h1.95l7.58,0c.64,0,.81,0,.92-.42a12,12,0,0,0,.23-1.83c0-.17,0-.39-.15-.39m-15.66-3.65a1.75,1.75,0,0,1-1.21.27,4.93,4.93,0,0,1-1.3-.15c-.12-.07-.15-.12-.15-.3v-4.92c0-.14,0-.19.15-.23a6,6,0,0,1,1-.06,2.6,2.6,0,0,1,2.61,2.94,2.81,2.81,0,0,1-1.11,2.45" transform="translate(-393.15 -432.94)"/><path class="cls-1" d="M513,485.49h-5.1c-.27,0-.42,0-.42.19s.13.16.3.16a3.82,3.82,0,0,1,.76.06c.64.13.82.44.84,1.1s0,1.33,0,2.3v1.82a.68.68,0,0,1-.37.72,4.2,4.2,0,0,1-1.65.22c-4.11,0-6.77-3.13-6.77-7.31,0-2.39.69-3.85,1.78-4.77a5.62,5.62,0,0,1,3.86-1.2,6.22,6.22,0,0,1,4.33,1.51,2.67,2.67,0,0,1,.66,1.62c0,.15.07.25.2.25s.22-.1.22-.41a27.63,27.63,0,0,1,.13-3.19c0-.13,0-.21-.27-.23a14.66,14.66,0,0,1-1.54-.21,23.14,23.14,0,0,0-3.44-.31,9.46,9.46,0,0,0-5.24,1.26,7.29,7.29,0,0,0-3.37,6.36c0,5.36,4.22,7.62,9,7.62a11.17,11.17,0,0,0,4.69-.87c.23-.14.25-.18.25-.7v-2.14c0-1,0-1.76,0-2.34s.21-1,.74-1.1a3,3,0,0,1,.52-.06c.14,0,.26,0,.26-.16s-.15-.19-.39-.19" transform="translate(-393.15 -432.94)"/><path class="cls-1" d="M553.33,480.27h-3.85c-.25,0-.43,0-.43.16s.07.18.28.18a3.06,3.06,0,0,1,.89.09c.41.16.57.45.59,1.46l.17,7.35h-.07c-.26-.23-2.53-2.56-3.7-3.72-2.49-2.42-5.06-5.05-5.27-5.26s-.52-.55-.74-.55-.29.24-.29.56l-.16,9.81c0,1.44-.08,1.88-.52,2a3.91,3.91,0,0,1-.76.07,8.4,8.4,0,0,1-1-.06c-.32-.06-.8-.27-1.46-1.77-1.09-2.51-4-9.28-4.35-10.19-.19-.37-.26-.53-.52-.53s-.3.19-.5.66L527.14,491a3.34,3.34,0,0,1-.17.38h0a4.62,4.62,0,0,1-.3.51l-.06.08a.44.44,0,0,1-.4.17,1.09,1.09,0,0,1-.49-.16,6.9,6.9,0,0,1-.68-.63c-1-1-2.24-2.53-3.75-4.4,1.66-1.34,2.37-2.43,2.37-3.65a2.9,2.9,0,0,0-1.21-2.28,6,6,0,0,0-3.25-.7h-5c-.25,0-.38,0-.38.16s.11.18.28.18a3.24,3.24,0,0,1,.69.05c.54.16.7.33.74.9s0,1,0,3.5V488c0,1.51,0,2.81-.08,3.52-.06.48-.16.79-.51.87a2.41,2.41,0,0,1-.6.06c-.21,0-.27.1-.27.18s.11.17.33.17h4.76c.21,0,.35-.06.35-.17a.19.19,0,0,0-.21-.18,6.26,6.26,0,0,1-.84-.06c-.53-.08-.6-.39-.66-.87-.08-.71-.1-2-.1-3.52v-.24a.12.12,0,0,1,.14-.13l1.53,0a.43.43,0,0,1,.32.11c.21.25.93,1.36,1.61,2.26a7.75,7.75,0,0,0,2.34,2.43,3.42,3.42,0,0,0,1.61.32h4c.18,0,.27,0,.27-.17s0-.18-.25-.18H529c-.53,0-.69-.18-.69-.47a3,3,0,0,1,.26-1l.91-2.22c0-.09.06-.11.16-.11h4a.17.17,0,0,1,.18.11l1.32,3.33a.26.26,0,0,1-.16.37c-.17,0-.21.08-.21.18s.2.11.51.13c1.44,0,2.68,0,3.29,0h5c.23,0,.39,0,.39-.17s-.09-.18-.29-.18a2.86,2.86,0,0,1-.9-.12c-.33-.11-.54-.5-.58-1.79l-.2-6.74h.07c.32.29,2.14,2.29,4,4.08s3.93,3.77,5,4.77a1,1,0,0,0,.69.35c.15,0,.28-.17.28-.53l.2-10.42c0-.94.15-1.23.62-1.37a1.94,1.94,0,0,1,.52-.05c.2,0,.29-.08.29-.18s-.15-.16-.39-.16m-33,6.25c-.29.22-.51.27-1.2.27a5,5,0,0,1-1.3-.15c-.12-.07-.16-.12-.16-.3v-4.92a.2.2,0,0,1,.16-.23,6,6,0,0,1,1-.06,2.6,2.6,0,0,1,2.61,2.94,2.79,2.79,0,0,1-1.12,2.45m12.9,1.18H530c-.06,0-.1,0-.06-.12l1.66-4.17c0-.06,0-.16.09-.16s.06.1.08.16l1.61,4.2c0,.06,0,.09-.08.09" transform="translate(-393.15 -432.94)"/><path class="cls-1" d="M559.37,480.27h-5.26c-.25,0-.39,0-.39.16s.12.18.3.18a3,3,0,0,1,.67.05c.55.16.71.33.75.9s0,1,0,3.5V488c0,1.51,0,2.81-.09,3.52,0,.48-.15.79-.5.87a2.41,2.41,0,0,1-.6.06c-.22,0-.27.1-.27.18s.11.17.32.17l5.94,0c3.15,0,5-1.05,5.74-1.83a6.42,6.42,0,0,0,1.86-4.61,5.77,5.77,0,0,0-1.61-4.2c-1.87-1.89-4.75-1.89-6.88-1.89M564,490.93a5.36,5.36,0,0,1-3.73,1.13c-1.34,0-2-.35-2.24-.66a3,3,0,0,1-.18-1.17c0-.33,0-1.59,0-3.34V484.8c0-1.3,0-2.66,0-3.23a.3.3,0,0,1,.21-.33,4,4,0,0,1,1-.11,6.93,6.93,0,0,1,4.79,1.58,5.37,5.37,0,0,1,1.6,4.12c0,1.71-.35,3.19-1.47,4.1" transform="translate(-393.15 -432.94)"/><path class="cls-1" d="M562.91,504.29c0-1.31,0-1.55,0-1.83s-.09-.43-.37-.49a1.58,1.58,0,0,0-.34,0c-.09,0-.14,0-.14-.07s.06-.08.19-.08l1.24,0,1.33,0a4.56,4.56,0,0,1,3.45,1,3,3,0,0,1,.84,2.19,3.44,3.44,0,0,1-.94,2.41,4,4,0,0,1-2.89,1c-.31,0-.66,0-1-.05s-.63-.05-.84-.05h-.5l-.59,0c-.11,0-.17,0-.17-.09s0-.07.13-.07a2.33,2.33,0,0,0,.32,0c.17,0,.21-.23.25-.48s0-1,0-1.83Zm1.08.95c0,.91,0,1.57,0,1.74a1.85,1.85,0,0,0,.1.65c.11.17.45.35,1.13.35a2.4,2.4,0,0,0,2.71-2.77,2.92,2.92,0,0,0-.83-2.15,3.44,3.44,0,0,0-2.45-.87,2.58,2.58,0,0,0-.56.06.17.17,0,0,0-.11.18v2.81Z" transform="translate(-393.15 -432.94)"/><path class="cls-1" d="M571.54,506.11s-.06,0-.08.07l-.46,1.18a1.54,1.54,0,0,0-.13.52c0,.16.07.27.34.27h.13c.11,0,.13,0,.13.07s-.05.09-.15.09l-.91,0c-.09,0-.57,0-1,0-.11,0-.16,0-.16-.09s0-.07.1-.07l.27,0c.4-.05.56-.34.73-.77L572.5,502c.1-.25.15-.34.24-.34s.13.07.21.27c.21.48,1.59,3.93,2.14,5.24.33.77.58.89.76.94l.36,0c.07,0,.12,0,.12.07s-.08.09-.4.09-.94,0-1.63,0c-.16,0-.26,0-.26-.07s0-.07.12-.08a.14.14,0,0,0,.08-.2l-.69-1.77a.09.09,0,0,0-.09-.06Zm1.76-.43s.05,0,0-.06l-.77-2.12s0-.07-.05-.07,0,0,0,.07l-.79,2.12s0,.06,0,.06Z" transform="translate(-393.15 -432.94)"/><path class="cls-1" d="M577.92,507.13c0,.68.13.9.3,1a1.43,1.43,0,0,0,.45.06c.1,0,.15,0,.15.07s-.08.09-.2.09c-.56,0-.91,0-1.07,0s-.48,0-.93,0c-.11,0-.19,0-.19-.09s.05-.07.14-.07a1.84,1.84,0,0,0,.39,0c.22-.07.25-.32.26-1.07l.08-5.08c0-.17,0-.29.11-.29s.17.11.32.26,1.42,1.5,2.67,2.75c.59.58,1.75,1.82,1.9,2h0l-.08-3.87c0-.53-.09-.69-.29-.78a1.48,1.48,0,0,0-.46-.05c-.11,0-.14,0-.14-.07s.09-.08.22-.08l1,0,.84,0c.11,0,.2,0,.2.08s0,.07-.15.07a.8.8,0,0,0-.26,0c-.24.07-.31.25-.32.73l-.1,5.44c0,.19,0,.27-.11.27a.49.49,0,0,1-.29-.19c-.55-.52-1.65-1.65-2.55-2.53s-1.89-2-2-2.15h0Z" transform="translate(-393.15 -432.94)"/><path class="cls-1" d="M586.16,506.11s-.06,0-.07.07l-.47,1.18a1.54,1.54,0,0,0-.13.52c0,.16.08.27.35.27H586c.1,0,.13,0,.13.07s-.06.09-.15.09l-.92,0c-.09,0-.56,0-1,0-.11,0-.17,0-.17-.09s0-.07.11-.07l.26,0c.4-.05.56-.34.74-.77l2.16-5.35c.1-.25.16-.34.24-.34s.13.07.22.27c.21.48,1.59,3.93,2.14,5.24.32.77.57.89.76.94l.36,0c.07,0,.11,0,.11.07s-.08.09-.4.09-.94,0-1.63,0c-.15,0-.25,0-.25-.07s0-.07.12-.08.12-.09.07-.2l-.69-1.77a.08.08,0,0,0-.08-.06Zm1.76-.43c.05,0,.06,0,.05-.06l-.78-2.12s0-.07,0-.07,0,0,0,.07l-.8,2.12s0,.06,0,.06Z" transform="translate(-393.15 -432.94)"/><path class="cls-1" d="M592.55,507.13c0,.68.13.9.31,1a1.37,1.37,0,0,0,.44.06c.1,0,.15,0,.15.07s-.08.09-.2.09c-.56,0-.9,0-1.07,0s-.48,0-.93,0c-.11,0-.19,0-.19-.09s.05-.07.14-.07a1.78,1.78,0,0,0,.39,0c.22-.07.26-.32.27-1.07l.07-5.08c0-.17,0-.29.12-.29s.17.11.31.26,1.42,1.5,2.68,2.75c.58.58,1.75,1.82,1.89,2H597l-.09-3.87c0-.53-.08-.69-.29-.78a1.48,1.48,0,0,0-.46-.05c-.1,0-.14,0-.14-.07s.1-.08.23-.08l1,0c.1,0,.42,0,.85,0,.11,0,.19,0,.19.08s0,.07-.15.07a.8.8,0,0,0-.26,0c-.24.07-.31.25-.32.73l-.09,5.44c0,.19,0,.27-.12.27s-.19-.09-.29-.19c-.54-.52-1.65-1.65-2.54-2.53s-1.9-2-2.06-2.15h0Z" transform="translate(-393.15 -432.94)"/><path class="cls-1" d="M605.6,507.73c0,.23,0,.25-.11.31a5,5,0,0,1-2.08.39c-2.11,0-4-1-4-3.38a3.21,3.21,0,0,1,1.5-2.82,4.15,4.15,0,0,1,2.32-.56,11.33,11.33,0,0,1,1.52.13,5.06,5.06,0,0,0,.68.1c.11,0,.12,0,.12.1a11.94,11.94,0,0,0-.06,1.42c0,.14,0,.18-.09.18s-.08,0-.09-.11a1.2,1.2,0,0,0-.29-.72,2.74,2.74,0,0,0-1.92-.67,2.47,2.47,0,0,0-1.71.53,2.59,2.59,0,0,0-.79,2.12,3,3,0,0,0,3,3.24,1.82,1.82,0,0,0,.73-.1c.13-.06.16-.17.16-.32v-1.82c0-.3-.09-.44-.38-.5l-.33,0c-.08,0-.13,0-.13-.07s.06-.09.18-.09c.45,0,1,0,1.25,0l1,0c.11,0,.17,0,.17.09s0,.07-.11.07l-.23,0c-.24.05-.32.19-.33.5s0,.6,0,1Z" transform="translate(-393.15 -432.94)"/><path class="cls-7" d="M510.85,464.77l-.25,0a1,1,0,0,0-.26,0,4.39,4.39,0,0,0-1.3.55c-.69.37-1.57.79-2.62,1.24a23.48,23.48,0,0,1-3.61,1.2,17.18,17.18,0,0,1-4.22.5,20.78,20.78,0,0,1-5.56-.73,13.76,13.76,0,0,1-4.71-2.28,11.22,11.22,0,0,1-3.24-3.83,11.67,11.67,0,0,1,3.24-14.61,14.25,14.25,0,0,1,4.71-2.34,19.66,19.66,0,0,1,5.56-.78,22.2,22.2,0,0,1,4.25.37q1.91.36,3.33.78a17.69,17.69,0,0,1,2.25.78,4.26,4.26,0,0,0,1,.37.48.48,0,0,0,.39-.23c.1-.16.19-.28.25-.37l.69.55-3.58,5.56-.46-.32a1.27,1.27,0,0,0,0-.28,2.71,2.71,0,0,0-.07-.32c-.06-.34-.36-.68-.91-1a9.57,9.57,0,0,0-2-.95,23.47,23.47,0,0,0-2.57-.69,12.86,12.86,0,0,0-2.5-.27,12.28,12.28,0,0,0-3.7.55,9.13,9.13,0,0,0-3.08,1.61,7.89,7.89,0,0,0-2.09,2.59,8.31,8.31,0,0,0,0,7,7.93,7.93,0,0,0,2.09,2.6,9.31,9.31,0,0,0,3.08,1.61,12.6,12.6,0,0,0,3.7.55,14.68,14.68,0,0,0,3.07-.35,18.24,18.24,0,0,0,2.94-.87,9.49,9.49,0,0,0,2.23-1.2q.9-.66.9-1.26a.82.82,0,0,0-.19-.55l.65-.37,3,4.87Z" transform="translate(-393.15 -432.94)"/><path class="cls-7" d="M540.37,468.45c0-.47-.14-.73-.43-.79a5.86,5.86,0,0,0-1.13-.09H516.94v-.83c.92,0,1.38-.27,1.38-.82V445.06c0-.55-.46-.82-1.38-.82v-.83h7.91v.83c-.86,0-1.29.27-1.29.82v18.29h15.25a1.85,1.85,0,0,0,1.13-.33,1,1,0,0,0,.43-.87h.83v6.3Z" transform="translate(-393.15 -432.94)"/><path class="cls-7" d="M552.72,444.6c-.67,0-1,.28-1,.83v13.78c0,1.93.62,3.26,1.86,4a14.15,14.15,0,0,0,10.89,0c1.24-.71,1.86-2,1.86-4V445.43c0-.55-.46-.83-1.38-.83v-.82h7.35v.82c-.73,0-1.1.28-1.1.83V459a11.14,11.14,0,0,1-.78,4.48,6.57,6.57,0,0,1-2.35,2.83,9.6,9.6,0,0,1-3.88,1.42,38.86,38.86,0,0,1-10.7,0,9.6,9.6,0,0,1-3.88-1.42,6.55,6.55,0,0,1-2.34-2.83,11,11,0,0,1-.79-4.48V445.43c0-.55-.42-.83-1.28-.83v-.82h7.53Z" transform="translate(-393.15 -432.94)"/><path class="cls-7" d="M593.24,443.85a23.76,23.76,0,0,1,4.09.34,12.88,12.88,0,0,1,3.49,1.1,6.83,6.83,0,0,1,2.43,2,4.79,4.79,0,0,1,.92,3,4.19,4.19,0,0,1-1.33,3.33,9.58,9.58,0,0,1-3.17,1.81v.09a8.9,8.9,0,0,1,3.65,2.05,5.22,5.22,0,0,1,1.5,4,5.63,5.63,0,0,1-.6,2.55,5.89,5.89,0,0,1-1.77,2,9,9,0,0,1-2.87,1.36,14.26,14.26,0,0,1-3.86.48H578.86v-.83c.86,0,1.29-.27,1.29-.82V445.5c0-.55-.43-.83-1.29-.83v-.82Zm.92,9.46a9.52,9.52,0,0,0,3.42-.53,2.51,2.51,0,0,0,0-4.46,9.54,9.54,0,0,0-3.42-.52h-8.78v5.51Zm0,10.47a7.47,7.47,0,0,0,4.16-.89,2.86,2.86,0,0,0,0-4.74,7.47,7.47,0,0,0-4.16-.89h-8.78v6.52Z" transform="translate(-393.15 -432.94)"/><path class="cls-7" d="M639.94,451.42A10.92,10.92,0,0,1,645,453.8a6.48,6.48,0,0,1,2,5.14,7.26,7.26,0,0,1-1.65,5,11.26,11.26,0,0,1-4.06,3,16.91,16.91,0,0,1-5.14,1.32c-1.83.18-3.48.28-5,.28a35.21,35.21,0,0,1-4.9-.37,15.79,15.79,0,0,1-4.72-1.41,10.28,10.28,0,0,1-3.58-2.8,6.74,6.74,0,0,1-1.41-4.39,8.88,8.88,0,0,1,.51-3.22,6,6,0,0,1,1.47-2.19,8.82,8.82,0,0,1,2.32-1.53,19.9,19.9,0,0,1,3-1.12v-.12a8.65,8.65,0,0,1-4.18-2.07,5.47,5.47,0,0,1-1.78-4.3,7.15,7.15,0,0,1,1.32-4.52,9,9,0,0,1,3.37-2.61,15.66,15.66,0,0,1,4.45-1.24,37.14,37.14,0,0,1,4.58-.3,38.13,38.13,0,0,1,4.57.3,17.59,17.59,0,0,1,4.6,1.21,9.52,9.52,0,0,1,3.58,2.58,6.55,6.55,0,0,1,1.44,4.4,5.71,5.71,0,0,1-1.62,4.39,10.13,10.13,0,0,1-4.21,2.22v.06Zm-8.19,2.29q-8.6,0-8.59,5t8.59,5q8.61,0,8.61-5T631.75,453.71Zm.07-12.75a12.86,12.86,0,0,0-5.66.9,3.53,3.53,0,0,0,0,6,18,18,0,0,0,11.31,0,3.52,3.52,0,0,0,0-6A12.84,12.84,0,0,0,631.82,441Z" transform="translate(-393.15 -432.94)"/><path class="cls-7" d="M675.25,451.42a11,11,0,0,1,5.09,2.38,6.48,6.48,0,0,1,1.95,5.14,7.26,7.26,0,0,1-1.65,5,11.35,11.35,0,0,1-4.06,3,17,17,0,0,1-5.15,1.32c-1.82.18-3.48.28-5,.28a35.21,35.21,0,0,1-4.9-.37,15.71,15.71,0,0,1-4.72-1.41,10.19,10.19,0,0,1-3.58-2.8,6.69,6.69,0,0,1-1.42-4.39,8.65,8.65,0,0,1,.52-3.22,5.84,5.84,0,0,1,1.47-2.19,8.76,8.76,0,0,1,2.31-1.53,20.77,20.77,0,0,1,3-1.12v-.12a8.7,8.7,0,0,1-4.18-2.07,5.5,5.5,0,0,1-1.77-4.3,7.15,7.15,0,0,1,1.32-4.52,8.84,8.84,0,0,1,3.37-2.61,15.47,15.47,0,0,1,4.45-1.24,37,37,0,0,1,4.57-.3,38,38,0,0,1,4.57.3,17.56,17.56,0,0,1,4.61,1.21,9.49,9.49,0,0,1,3.57,2.58,6.5,6.5,0,0,1,1.45,4.4,5.72,5.72,0,0,1-1.63,4.39,10,10,0,0,1-4.21,2.22v.06Zm-8.18,2.29q-8.6,0-8.6,5t8.6,5q8.61,0,8.6-5T667.07,453.71Zm.06-12.75a12.81,12.81,0,0,0-5.65.9,3.52,3.52,0,0,0,0,6,18,18,0,0,0,11.31,0,3.53,3.53,0,0,0,0-6A12.89,12.89,0,0,0,667.13,441Z" transform="translate(-393.15 -432.94)"/><path class="cls-7" d="M595.13,492.43a3.77,3.77,0,0,1-1.21-.2c-.59-.17-.78-.73-1-2l-1.77-12c-.06-.4-.17-.6-.34-.6s-.28.16-.44.46l-5.29,11.11-5.3-11c-.26-.5-.38-.6-.53-.6s-.27.18-.33.51L577,490.83c-.09.67-.25,1.42-.79,1.54a2.42,2.42,0,0,1-.58.06c-.2,0-.32,0-.32.13s.16.22.35.22h4c.29,0,.46,0,.46-.22s-.13-.13-.28-.13a3.65,3.65,0,0,1-.82-.1c-.33-.08-.59-.25-.59-.62a6.16,6.16,0,0,1,.07-.92l1-7.73h.08c.68,1.46,1.85,3.9,2,4.31s1.76,3.52,2.23,4.42c.31.58.5,1,.68,1s.27-.18.72-1.09l4.24-8.84h.08l1.17,8.68c.07.55,0,.8-.1.84s-.22.11-.22.21.12.21.57.21h3.95c.27,0,.51-.06.51-.22s-.14-.13-.31-.13" transform="translate(-393.15 -432.94)"/><path class="cls-7" d="M603.92,490.28c-.12,0-.15.07-.19.25-.12.68-.31,1-.74,1.23a4.73,4.73,0,0,1-1.61.21c-1.75,0-2.28-.26-2.32-1.38,0-.49,0-1.89,0-2.45v-1.33c0-.09,0-.17.09-.17.44,0,2.38,0,2.69.08.64.06.85.31,1,.64s0,.42.05.6,0,.14.16.14.17-.24.17-.38,0-.77.07-1.1c.1-.84.15-1.11.15-1.2a.16.16,0,0,0-.15-.18c-.07,0-.13.1-.26.21s-.41.22-.82.26-2.61,0-3,0c-.11,0-.12-.07-.12-.17v-4.08c0-.1,0-.16.12-.16.35,0,2.39,0,2.68.08.85.08,1,.31,1.13.6a1.67,1.67,0,0,1,.12.6c0,.14,0,.22.13.22s.18-.2.19-.28.08-.91.1-1.08a8.13,8.13,0,0,1,.14-1.11c0-.08,0-.16-.12-.16a2,2,0,0,0-.27.08,5.5,5.5,0,0,1-.72.09c-.33,0-6.25,0-7.13,0-.26,0-.39,0-.39.15s.11.18.29.18a3.73,3.73,0,0,1,.67.05c.55.16.71.34.74.9s0,1,0,3.5v2.92c0,1.52,0,2.82-.08,3.52-.06.48-.16.79-.51.88a3.17,3.17,0,0,1-.59,0c-.23,0-.28.1-.28.18s.12.17.33.17l7.29,0c.64,0,.8,0,.91-.43a10.65,10.65,0,0,0,.24-1.82c0-.18,0-.39-.16-.39" transform="translate(-393.15 -432.94)"/><path class="cls-7" d="M618.91,492.46a1.53,1.53,0,0,1-.41,0,3.09,3.09,0,0,1-1.83-1.09c-1-1-2.24-2.52-3.75-4.39,1.67-1.34,2.37-2.44,2.37-3.66a2.89,2.89,0,0,0-1.21-2.27,5.91,5.91,0,0,0-3.24-.7h-5c-.25,0-.38,0-.38.15s.11.18.28.18a4.07,4.07,0,0,1,.69.05c.55.16.7.34.74.9s0,1,0,3.5V488c0,1.52,0,2.82-.08,3.52-.06.48-.15.8-.5.88a2.57,2.57,0,0,1-.61,0c-.21,0-.27.1-.27.18s.11.17.33.17h4.77c.21,0,.34-.05.34-.17a.19.19,0,0,0-.21-.18,6.14,6.14,0,0,1-.83,0c-.53-.08-.61-.4-.66-.88a35.18,35.18,0,0,1-.1-3.52v-.23a.12.12,0,0,1,.13-.14l1.54,0a.4.4,0,0,1,.31.11c.21.25.93,1.37,1.62,2.26a7.92,7.92,0,0,0,2.33,2.44,3.77,3.77,0,0,0,1.87.32h1.63c.22,0,.33,0,.33-.17a.2.2,0,0,0-.21-.18M612,486.55a1.68,1.68,0,0,1-1.2.28,4.61,4.61,0,0,1-1.31-.16c-.12-.06-.15-.12-.15-.3v-4.92c0-.13,0-.19.15-.23a6.38,6.38,0,0,1,1-.05,2.6,2.6,0,0,1,2.61,2.93,2.81,2.81,0,0,1-1.11,2.45" transform="translate(-393.15 -432.94)"/><path class="cls-7" d="M629.56,489.56c-.13,0-.17.08-.21.33a2.65,2.65,0,0,1-.59,1.12c-.67.75-1.51.87-3,.87a5.52,5.52,0,0,1-5.33-5.8,5.4,5.4,0,0,1,1.58-4.3,4.62,4.62,0,0,1,3.23-.93,4.85,4.85,0,0,1,3.3,1,2.39,2.39,0,0,1,.67,1.54c0,.21,0,.35.17.35s.21-.17.23-.41,0-1.24.06-1.79.08-.78.08-.91-.06-.17-.26-.19c-.5-.07-1.07-.19-1.71-.27a17,17,0,0,0-2.49-.19,7.7,7.7,0,0,0-5.42,1.76,6.36,6.36,0,0,0,.14,9.41,8.78,8.78,0,0,0,5.87,1.79,10.08,10.08,0,0,0,3.09-.37c.29-.12.37-.19.45-.48a15.45,15.45,0,0,0,.37-2.21c0-.13-.08-.29-.2-.29" transform="translate(-393.15 -432.94)"/><path class="cls-7" d="M644.66,480.19h-4c-.23,0-.34,0-.34.15s.09.18.28.18a2.93,2.93,0,0,1,.63.06c.54.15.68.33.72.9s0,1,0,3.5v2.08c0,1.69,0,3.13-1,4a3.21,3.21,0,0,1-2.3.87,3.29,3.29,0,0,1-2.15-.65c-.84-.66-1.31-1.6-1.31-4V485c0-2.52,0-3,.05-3.5s.17-.82.62-.9a2.29,2.29,0,0,1,.51-.06c.17,0,.27-.06.27-.18s-.13-.15-.37-.15h-4.77c-.26,0-.36,0-.36.15s.09.18.28.18a3.07,3.07,0,0,1,.67.06c.54.15.69.31.74.9s0,1,0,3.5v2.42c0,2.4.68,3.63,1.55,4.38a5.9,5.9,0,0,0,3.91,1.13,5.33,5.33,0,0,0,3.61-1.19c1.45-1.19,1.63-3.13,1.63-5V485c0-2.52,0-3,0-3.5s.17-.82.62-.9a2.5,2.5,0,0,1,.51-.06c.2,0,.29-.06.29-.18s-.11-.15-.34-.15" transform="translate(-393.15 -432.94)"/><path class="cls-7" d="M668.13,490.17c-.12,0-.16.08-.19.26-.12.67-.32,1-.75,1.22a4.7,4.7,0,0,1-1.61.21c-1.75,0-2.28-.25-2.31-1.37,0-.49,0-1.89,0-2.46v-1.32c0-.1,0-.18.09-.18.43,0,2.37,0,2.68.08.65.06.86.32,1,.64a5,5,0,0,1,.07.61c0,.07,0,.14.15.14s.17-.24.17-.38,0-.77.08-1.1c.1-.84.14-1.11.14-1.21a.15.15,0,0,0-.14-.17c-.08,0-.13.1-.27.21s-.41.21-.81.25-2.61,0-3,0c-.11,0-.12-.08-.12-.17v-4.09c0-.1,0-.15.12-.15.34,0,2.39,0,2.68.08.85.07,1,.31,1.12.6a1.48,1.48,0,0,1,.12.6c0,.14,0,.22.14.22s.17-.21.19-.28.08-.91.1-1.08a6.82,6.82,0,0,1,.13-1.08c0-.07,0-.15-.11-.15a2.05,2.05,0,0,0-.28.08c-.13,0-.4.07-.72.09s-4.12,0-4.66,0-1.58,0-2.47,0c-.26,0-.39,0-.39.16s.11.18.29.18a3.2,3.2,0,0,1,.68.05c.54.16.7.33.74.9s0,1,0,3.5V488c0,1.51,0,2.81-.08,3.52-.06.48-.16.79-.51.87a4.63,4.63,0,0,1-.83.06,3.74,3.74,0,0,1-.61,0,3.27,3.27,0,0,1-1.83-1.09c-1-1-2.23-2.53-3.75-4.4,1.67-1.34,2.38-2.43,2.38-3.65a2.9,2.9,0,0,0-1.21-2.28,6,6,0,0,0-3.25-.7h-5c-.26,0-.39,0-.39.16s.11.18.29.18a3.25,3.25,0,0,1,.68.05c.54.16.7.33.73.9s0,1,0,3.5V488c0,1.51,0,2.81-.08,3.52-.06.48-.16.79-.51.87a2.41,2.41,0,0,1-.6.06c-.22,0-.27.09-.27.18s.12.17.33.17h4.76c.22,0,.35-.06.35-.17a.19.19,0,0,0-.21-.18,6.38,6.38,0,0,1-.84-.06c-.52-.08-.6-.39-.66-.87-.08-.71-.09-2-.09-3.52v-.24a.12.12,0,0,1,.13-.13l1.54,0a.39.39,0,0,1,.3.11c.22.25.94,1.36,1.62,2.26a7.75,7.75,0,0,0,2.34,2.43,3.71,3.71,0,0,0,1.86.33h1.95l7.58,0c.64,0,.81,0,.92-.42a12,12,0,0,0,.23-1.83c0-.17,0-.39-.15-.39m-15.66-3.65a1.75,1.75,0,0,1-1.21.27,4.93,4.93,0,0,1-1.3-.15c-.12-.07-.15-.12-.15-.3v-4.92c0-.14,0-.19.15-.23a6,6,0,0,1,1-.06,2.6,2.6,0,0,1,2.61,2.94,2.81,2.81,0,0,1-1.11,2.45" transform="translate(-393.15 -432.94)"/><path class="cls-7" d="M513,485.49h-5.1c-.27,0-.42,0-.42.19s.13.16.3.16a3.82,3.82,0,0,1,.76.06c.64.13.82.44.84,1.1s0,1.33,0,2.3v1.82a.68.68,0,0,1-.37.72,4.2,4.2,0,0,1-1.65.22c-4.11,0-6.77-3.13-6.77-7.31,0-2.39.69-3.85,1.78-4.77a5.62,5.62,0,0,1,3.86-1.2,6.22,6.22,0,0,1,4.33,1.51,2.67,2.67,0,0,1,.66,1.62c0,.15.07.25.2.25s.22-.1.22-.41a27.63,27.63,0,0,1,.13-3.19c0-.13,0-.21-.27-.23a14.66,14.66,0,0,1-1.54-.21,23.14,23.14,0,0,0-3.44-.31,9.46,9.46,0,0,0-5.24,1.26,7.29,7.29,0,0,0-3.37,6.36c0,5.36,4.22,7.62,9,7.62a11.17,11.17,0,0,0,4.69-.87c.23-.14.25-.18.25-.7v-2.14c0-1,0-1.76,0-2.34s.21-1,.74-1.1a3,3,0,0,1,.52-.06c.14,0,.26,0,.26-.16s-.15-.19-.39-.19" transform="translate(-393.15 -432.94)"/><path class="cls-7" d="M553.33,480.27h-3.85c-.25,0-.43,0-.43.16s.07.18.28.18a3.06,3.06,0,0,1,.89.09c.41.16.57.45.59,1.46l.17,7.35h-.07c-.26-.23-2.53-2.56-3.7-3.72-2.49-2.42-5.06-5.05-5.27-5.26s-.52-.55-.74-.55-.29.24-.29.56l-.16,9.81c0,1.44-.08,1.88-.52,2a3.91,3.91,0,0,1-.76.07,8.4,8.4,0,0,1-1-.06c-.32-.06-.8-.27-1.46-1.77-1.09-2.51-4-9.28-4.35-10.19-.19-.37-.26-.53-.52-.53s-.3.19-.5.66L527.14,491a3.34,3.34,0,0,1-.17.38h0a4.62,4.62,0,0,1-.3.51l-.06.08a.44.44,0,0,1-.4.17,1.09,1.09,0,0,1-.49-.16,6.9,6.9,0,0,1-.68-.63c-1-1-2.24-2.53-3.75-4.4,1.66-1.34,2.37-2.43,2.37-3.65a2.9,2.9,0,0,0-1.21-2.28,6,6,0,0,0-3.25-.7h-5c-.25,0-.38,0-.38.16s.11.18.28.18a3.24,3.24,0,0,1,.69.05c.54.16.7.33.74.9s0,1,0,3.5V488c0,1.51,0,2.81-.08,3.52-.06.48-.16.79-.51.87a2.41,2.41,0,0,1-.6.06c-.21,0-.27.1-.27.18s.11.17.33.17h4.76c.21,0,.35-.06.35-.17a.19.19,0,0,0-.21-.18,6.26,6.26,0,0,1-.84-.06c-.53-.08-.6-.39-.66-.87-.08-.71-.1-2-.1-3.52v-.24a.12.12,0,0,1,.14-.13l1.53,0a.43.43,0,0,1,.32.11c.21.25.93,1.36,1.61,2.26a7.75,7.75,0,0,0,2.34,2.43,3.42,3.42,0,0,0,1.61.32h4c.18,0,.27,0,.27-.17s0-.18-.25-.18H529c-.53,0-.69-.18-.69-.47a3,3,0,0,1,.26-1l.91-2.22c0-.09.06-.11.16-.11h4a.17.17,0,0,1,.18.11l1.32,3.33a.26.26,0,0,1-.16.37c-.17,0-.21.08-.21.18s.2.11.51.13c1.44,0,2.68,0,3.29,0h5c.23,0,.39,0,.39-.17s-.09-.18-.29-.18a2.86,2.86,0,0,1-.9-.12c-.33-.11-.54-.5-.58-1.79l-.2-6.74h.07c.32.29,2.14,2.29,4,4.08s3.93,3.77,5,4.77a1,1,0,0,0,.69.35c.15,0,.28-.17.28-.53l.2-10.42c0-.94.15-1.23.62-1.37a1.94,1.94,0,0,1,.52-.05c.2,0,.29-.08.29-.18s-.15-.16-.39-.16m-33,6.25c-.29.22-.51.27-1.2.27a5,5,0,0,1-1.3-.15c-.12-.07-.16-.12-.16-.3v-4.92a.2.2,0,0,1,.16-.23,6,6,0,0,1,1-.06,2.6,2.6,0,0,1,2.61,2.94,2.79,2.79,0,0,1-1.12,2.45m12.9,1.18H530c-.06,0-.1,0-.06-.12l1.66-4.17c0-.06,0-.16.09-.16s.06.1.08.16l1.61,4.2c0,.06,0,.09-.08.09" transform="translate(-393.15 -432.94)"/><path class="cls-7" d="M559.37,480.27h-5.26c-.25,0-.39,0-.39.16s.12.18.3.18a3,3,0,0,1,.67.05c.55.16.71.33.75.9s0,1,0,3.5V488c0,1.51,0,2.81-.09,3.52,0,.48-.15.79-.5.87a2.41,2.41,0,0,1-.6.06c-.22,0-.27.1-.27.18s.11.17.32.17l5.94,0c3.15,0,5-1.05,5.74-1.83a6.42,6.42,0,0,0,1.86-4.61,5.77,5.77,0,0,0-1.61-4.2c-1.87-1.89-4.75-1.89-6.88-1.89M564,490.93a5.36,5.36,0,0,1-3.73,1.13c-1.34,0-2-.35-2.24-.66a3,3,0,0,1-.18-1.17c0-.33,0-1.59,0-3.34V484.8c0-1.3,0-2.66,0-3.23a.3.3,0,0,1,.21-.33,4,4,0,0,1,1-.11,6.93,6.93,0,0,1,4.79,1.58,5.37,5.37,0,0,1,1.6,4.12c0,1.71-.35,3.19-1.47,4.1" transform="translate(-393.15 -432.94)"/><path class="cls-7" d="M562.91,504.29c0-1.31,0-1.55,0-1.83s-.09-.43-.37-.49a1.58,1.58,0,0,0-.34,0c-.09,0-.14,0-.14-.07s.06-.08.19-.08l1.24,0,1.33,0a4.56,4.56,0,0,1,3.45,1,3,3,0,0,1,.84,2.19,3.44,3.44,0,0,1-.94,2.41,4,4,0,0,1-2.89,1c-.31,0-.66,0-1-.05s-.63-.05-.84-.05h-.5l-.59,0c-.11,0-.17,0-.17-.09s0-.07.13-.07a2.33,2.33,0,0,0,.32,0c.17,0,.21-.23.25-.48s0-1,0-1.83Zm1.08.95c0,.91,0,1.57,0,1.74a1.85,1.85,0,0,0,.1.65c.11.17.45.35,1.13.35a2.4,2.4,0,0,0,2.71-2.77,2.92,2.92,0,0,0-.83-2.15,3.44,3.44,0,0,0-2.45-.87,2.58,2.58,0,0,0-.56.06.17.17,0,0,0-.11.18v2.81Z" transform="translate(-393.15 -432.94)"/><path class="cls-7" d="M571.54,506.11s-.06,0-.08.07l-.46,1.18a1.54,1.54,0,0,0-.13.52c0,.16.07.27.34.27h.13c.11,0,.13,0,.13.07s-.05.09-.15.09l-.91,0c-.09,0-.57,0-1,0-.11,0-.16,0-.16-.09s0-.07.1-.07l.27,0c.4-.05.56-.34.73-.77L572.5,502c.1-.25.15-.34.24-.34s.13.07.21.27c.21.48,1.59,3.93,2.14,5.24.33.77.58.89.76.94l.36,0c.07,0,.12,0,.12.07s-.08.09-.4.09-.94,0-1.63,0c-.16,0-.26,0-.26-.07s0-.07.12-.08a.14.14,0,0,0,.08-.2l-.69-1.77a.09.09,0,0,0-.09-.06Zm1.76-.43s.05,0,0-.06l-.77-2.12s0-.07-.05-.07,0,0,0,.07l-.79,2.12s0,.06,0,.06Z" transform="translate(-393.15 -432.94)"/><path class="cls-7" d="M577.92,507.13c0,.68.13.9.3,1a1.43,1.43,0,0,0,.45.06c.1,0,.15,0,.15.07s-.08.09-.2.09c-.56,0-.91,0-1.07,0s-.48,0-.93,0c-.11,0-.19,0-.19-.09s.05-.07.14-.07a1.84,1.84,0,0,0,.39,0c.22-.07.25-.32.26-1.07l.08-5.08c0-.17,0-.29.11-.29s.17.11.32.26,1.42,1.5,2.67,2.75c.59.58,1.75,1.82,1.9,2h0l-.08-3.87c0-.53-.09-.69-.29-.78a1.48,1.48,0,0,0-.46-.05c-.11,0-.14,0-.14-.07s.09-.08.22-.08l1,0,.84,0c.11,0,.2,0,.2.08s0,.07-.15.07a.8.8,0,0,0-.26,0c-.24.07-.31.25-.32.73l-.1,5.44c0,.19,0,.27-.11.27a.49.49,0,0,1-.29-.19c-.55-.52-1.65-1.65-2.55-2.53s-1.89-2-2-2.15h0Z" transform="translate(-393.15 -432.94)"/><path class="cls-7" d="M586.16,506.11s-.06,0-.07.07l-.47,1.18a1.54,1.54,0,0,0-.13.52c0,.16.08.27.35.27H586c.1,0,.13,0,.13.07s-.06.09-.15.09l-.92,0c-.09,0-.56,0-1,0-.11,0-.17,0-.17-.09s0-.07.11-.07l.26,0c.4-.05.56-.34.74-.77l2.16-5.35c.1-.25.16-.34.24-.34s.13.07.22.27c.21.48,1.59,3.93,2.14,5.24.32.77.57.89.76.94l.36,0c.07,0,.11,0,.11.07s-.08.09-.4.09-.94,0-1.63,0c-.15,0-.25,0-.25-.07s0-.07.12-.08.12-.09.07-.2l-.69-1.77a.08.08,0,0,0-.08-.06Zm1.76-.43c.05,0,.06,0,.05-.06l-.78-2.12s0-.07,0-.07,0,0,0,.07l-.8,2.12s0,.06,0,.06Z" transform="translate(-393.15 -432.94)"/><path class="cls-7" d="M592.55,507.13c0,.68.13.9.31,1a1.37,1.37,0,0,0,.44.06c.1,0,.15,0,.15.07s-.08.09-.2.09c-.56,0-.9,0-1.07,0s-.48,0-.93,0c-.11,0-.19,0-.19-.09s.05-.07.14-.07a1.78,1.78,0,0,0,.39,0c.22-.07.26-.32.27-1.07l.07-5.08c0-.17,0-.29.12-.29s.17.11.31.26,1.42,1.5,2.68,2.75c.58.58,1.75,1.82,1.89,2H597l-.09-3.87c0-.53-.08-.69-.29-.78a1.48,1.48,0,0,0-.46-.05c-.1,0-.14,0-.14-.07s.1-.08.23-.08l1,0c.1,0,.42,0,.85,0,.11,0,.19,0,.19.08s0,.07-.15.07a.8.8,0,0,0-.26,0c-.24.07-.31.25-.32.73l-.09,5.44c0,.19,0,.27-.12.27s-.19-.09-.29-.19c-.54-.52-1.65-1.65-2.54-2.53s-1.9-2-2.06-2.15h0Z" transform="translate(-393.15 -432.94)"/><path class="cls-7" d="M605.6,507.73c0,.23,0,.25-.11.31a5,5,0,0,1-2.08.39c-2.11,0-4-1-4-3.38a3.21,3.21,0,0,1,1.5-2.82,4.15,4.15,0,0,1,2.32-.56,11.33,11.33,0,0,1,1.52.13,5.06,5.06,0,0,0,.68.1c.11,0,.12,0,.12.1a11.94,11.94,0,0,0-.06,1.42c0,.14,0,.18-.09.18s-.08,0-.09-.11a1.2,1.2,0,0,0-.29-.72,2.74,2.74,0,0,0-1.92-.67,2.47,2.47,0,0,0-1.71.53,2.59,2.59,0,0,0-.79,2.12,3,3,0,0,0,3,3.24,1.82,1.82,0,0,0,.73-.1c.13-.06.16-.17.16-.32v-1.82c0-.3-.09-.44-.38-.5l-.33,0c-.08,0-.13,0-.13-.07s.06-.09.18-.09c.45,0,1,0,1.25,0l1,0c.11,0,.17,0,.17.09s0,.07-.11.07l-.23,0c-.24.05-.32.19-.33.5s0,.6,0,1Z" transform="translate(-393.15 -432.94)"/></svg>